<?xml version="1.0" encoding="utf-8"?>
<!-- Generator: Adobe Illustrator 18.0.0, SVG Export Plug-In . SVG Version: 6.00 Build 0)  -->
<!DOCTYPE svg PUBLIC "-//W3C//DTD SVG 1.1//EN" "http://www.w3.org/Graphics/SVG/1.1/DTD/svg11.dtd">
<svg version="1.1" xmlns="http://www.w3.org/2000/svg" xmlns:xlink="http://www.w3.org/1999/xlink" x="0px" y="0px"
	 viewBox="0 0 800 800" enable-background="new 0 0 800 800" xml:space="preserve">
<g id="background">
</g>
<g id="objects">
	<path id="XMLID_379_" fill-rule="evenodd" clip-rule="evenodd" fill="#4D4D4D" d="M408.7,617.2c201.4,0,365.6-2.8,365.6-6.2
		c0-3.4-164.2-6.2-365.6-6.2S43.1,607.6,43.1,611C43.1,614.4,207.3,617.2,408.7,617.2z"/>
	<path id="XMLID_317_" fill-rule="evenodd" clip-rule="evenodd" fill="#2B2A2C" d="M161.3,597c0,0.7-0.4,13.9-0.4,13.9l13.1,0
		l-0.2-2.2c5.3,3.7,19,1.6,20.9,1.3c6.9-0.9,13.1-3,13.1-3l-0.3-1.7c0,0,0.8-2-1.4-2.1c-16.2-0.8-23.7-3.9-24.6-8.5
		C181.6,594.3,161.3,597,161.3,597z"/>
	<path id="XMLID_312_" fill-rule="evenodd" clip-rule="evenodd" fill="#292426" d="M301.9,602.3c-2.9,0.6-2.4-3.9-5.8-4
		c0,0-2.4,4.4-0.7,6.6c0.5,0.2,0.4,1.2,1,1.3l0,4.8c0,0,3.2,0,3.4,0c0.2,0-0.1-3.1,0-3.8c0.1-0.7,0.1-0.3,0.1-0.5
		c0.5,0.1,1,0.1,1.4,0.2c0.1-0.1,4.2,3.6,4.2,3.5c3.1,0.9,5.8,0.5,7.4,0.4c1.6,0,4.8-2,4.1-2.1c-7.5-1.8-12-7.5-14.3-10.4
		C302.7,598,303.6,601.6,301.9,602.3z"/>
	<path id="XMLID_310_" fill-rule="evenodd" clip-rule="evenodd" fill="#332D2E" d="M311,602.2c-2.9,0.6-3-3.9-6.5-4
		c0,0-3.1,5.2-1.4,7.4c0.5,0.2,1.1,0.3,1.7,0.4l0,4.6c0,0,3.2,0,3.4,0c0.2,0-0.2-2.4,0-3.6c0-0.2,0.1-0.3,0.1-0.5
		c0.5,0.1,1,0.1,1.4,0.2c0.1-0.1,4.2,3.6,4.2,3.5c3.1,0.9,5.8,0.5,7.4,0.4c1.6,0,4.8-2,4.1-2.1c-7.5-1.8-11.3-7.2-13.6-10.1
		C311.8,598.2,312.8,601.5,311,602.2z"/>
	<path id="XMLID_302_" fill-rule="evenodd" clip-rule="evenodd" fill="#2B2A2C" d="M557.1,599.3c0,0.6-0.3,11.6-0.3,11.6l10.9,0
		l-0.1-1.8c4.4,3.1,15.8,1.3,17.4,1.1c5.7-0.8,10.9-2.5,10.9-2.5l-0.2-1.4c0,0,0.7-1.7-1.2-1.8c-13.5-0.6-19.8-3.2-20.4-7.1
		C574,597.1,557.1,599.3,557.1,599.3z"/>
	<path id="XMLID_301_" fill-rule="evenodd" clip-rule="evenodd" fill="#2B2A2C" d="M520.3,599.3c0,0.6-0.3,11.6-0.3,11.6l10.9,0
		l-0.1-1.8c4.4,3.1,15.8,1.3,17.4,1.1c5.7-0.8,10.9-2.5,10.9-2.5l-0.2-1.4c0,0,0.7-1.7-1.2-1.8c-13.5-0.6-19.8-3.2-20.4-7.1
		C537.1,597.1,520.3,599.3,520.3,599.3z"/>
	<path id="XMLID_222_" fill-rule="evenodd" clip-rule="evenodd" fill="#242424" d="M641.3,600c0,0.6,0.3,11.6,0.3,11.6l-10.9,0
		l0.1-1.8c-4.4,3.1-15.8,1.3-17.4,1.1c-5.7-0.8-10.9-2.5-10.9-2.5l0.2-1.4c0,0-0.7-1.7,1.2-1.8c13.5-0.6,19.8-3.2,20.4-7.1
		C624.4,597.8,641.3,600,641.3,600z"/>
	<path id="XMLID_221_" fill-rule="evenodd" clip-rule="evenodd" fill="#2B2A2C" d="M665.6,600c0,0.6,0.3,11.6,0.3,11.6l-10.9,0
		l0.1-1.8c-4.4,3.1-15.8,1.3-17.4,1.1c-5.7-0.8-10.9-2.5-10.9-2.5l0.2-1.4c0,0-0.7-1.7,1.2-1.8c13.5-0.6,19.8-3.2,20.4-7.1
		C648.7,597.8,665.6,600,665.6,600z"/>
	<g id="XMLID_380_">
		<g id="XMLID_537_">
			<path id="XMLID_569_" fill-rule="evenodd" clip-rule="evenodd" fill="#E6E7E8" d="M514,456.6h42.2c1.4,0,2.6,1.2,2.6,2.6v28.5
				c0,1.4-1.2,2.6-2.6,2.6H514c-1.4,0-2.6-1.2-2.6-2.6v-28.5C511.5,457.7,512.6,456.6,514,456.6z"/>
			<rect id="XMLID_568_" x="514" y="459.1" fill-rule="evenodd" clip-rule="evenodd" fill="#839CA9" width="42.2" height="28.5"/>
			<path id="XMLID_567_" fill-rule="evenodd" clip-rule="evenodd" fill="#A6A8AB" d="M505.7,488.9h58.9c1,0,1.8,0.8,1.8,1.8
				c0,1-0.8,1.8-1.8,1.8h-58.9c-1,0-1.8-0.8-1.8-1.8C503.8,489.8,504.7,488.9,505.7,488.9z"/>
			<circle id="XMLID_566_" fill-rule="evenodd" clip-rule="evenodd" fill="#6D6E70" cx="535.1" cy="457.8" r="0.5"/>
			<path id="XMLID_565_" fill-rule="evenodd" clip-rule="evenodd" fill="#BBBDBF" d="M503.8,490.7h62.6v-1.4c0-0.2-0.2-0.4-0.4-0.4
				h-61.8c-0.2,0-0.4,0.2-0.4,0.4V490.7z"/>
			<path id="XMLID_564_" fill-rule="evenodd" clip-rule="evenodd" fill="#929497" d="M527.4,488.9h15.5v0.1c0,0.2-0.2,0.4-0.4,0.4
				h-14.7C527.6,489.4,527.4,489.2,527.4,488.9L527.4,488.9z"/>
			<circle id="XMLID_563_" fill-rule="evenodd" clip-rule="evenodd" fill="#404041" cx="535.1" cy="457.8" r="0.3"/>
			<rect id="XMLID_562_" x="514" y="459.1" fill-rule="evenodd" clip-rule="evenodd" fill="#58595B" width="42.2" height="28.5"/>
			<rect id="XMLID_561_" x="514.1" y="459.3" fill-rule="evenodd" clip-rule="evenodd" fill="#FFFFFF" width="42" height="28.2"/>
			<g id="XMLID_551_">
				<rect id="XMLID_560_" x="519.8" y="467.8" fill-rule="evenodd" clip-rule="evenodd" fill="#6DBABF" width="2.1" height="8.5"/>
				<rect id="XMLID_559_" x="523.4" y="464.3" fill-rule="evenodd" clip-rule="evenodd" fill="#EB6026" width="2.1" height="12"/>
				<rect id="XMLID_558_" x="526.9" y="466" fill-rule="evenodd" clip-rule="evenodd" fill="#EFAF3E" width="2.1" height="10.3"/>
				<rect id="XMLID_557_" x="530.5" y="468.5" fill-rule="evenodd" clip-rule="evenodd" fill="#6DBABF" width="2.1" height="7.8"/>
				<rect id="XMLID_556_" x="534.1" y="465.9" fill-rule="evenodd" clip-rule="evenodd" fill="#EB6026" width="2.1" height="10.4"/>
				<rect id="XMLID_555_" x="537.6" y="464" fill-rule="evenodd" clip-rule="evenodd" fill="#EFAF3E" width="2.1" height="12.3"/>
				<rect id="XMLID_554_" x="541.2" y="461.9" fill-rule="evenodd" clip-rule="evenodd" fill="#6DBABF" width="2.1" height="14.4"/>
				<rect id="XMLID_553_" x="544.8" y="464.7" fill-rule="evenodd" clip-rule="evenodd" fill="#EB6026" width="2.1" height="11.6"/>
				<rect id="XMLID_552_" x="548.3" y="467.1" fill-rule="evenodd" clip-rule="evenodd" fill="#EFAF3E" width="2.1" height="9.1"/>
			</g>
			<g id="XMLID_538_">
				<g id="XMLID_547_">
					<path id="XMLID_550_" fill-rule="evenodd" clip-rule="evenodd" fill="#EB6026" d="M526.6,481.9l2-2.8c-0.5-0.4-1.2-0.6-1.9-0.6
						l0,0L526.6,481.9L526.6,481.9z"/>
					<path id="XMLID_549_" fill-rule="evenodd" clip-rule="evenodd" fill="#EFAF3E" d="M526.6,481.9l0.1-3.4
						c-1.9-0.1-3.4,1.4-3.5,3.3L526.6,481.9z"/>
					<path id="XMLID_548_" fill-rule="evenodd" clip-rule="evenodd" fill="#6DBABF" d="M526.6,481.9l-3.4-0.1
						c-0.1,1.9,1.4,3.4,3.3,3.5c1.9,0.1,3.4-1.4,3.5-3.3c0-1.2-0.5-2.2-1.4-2.9L526.6,481.9L526.6,481.9z"/>
				</g>
				<g id="XMLID_543_">
					<path id="XMLID_546_" fill-rule="evenodd" clip-rule="evenodd" fill="#6DBABF" d="M540.3,481.8c-0.1,1.9,1.4,3.4,3.3,3.5
						c1.9,0.1,3.4-1.4,3.5-3.3c0-1.2-0.5-2.2-1.4-2.9c-0.5-0.4-1.2-0.6-1.9-0.6l0,0C541.9,478.5,540.3,479.9,540.3,481.8z"/>
					<path id="XMLID_545_" fill-rule="evenodd" clip-rule="evenodd" fill="#EB6026" d="M546.5,480.1l-2.9,1.9l0.9,3.2
						c1.4-0.4,2.4-1.6,2.4-3.2C547.1,481.3,546.9,480.7,546.5,480.1z"/>
					<path id="XMLID_544_" fill-rule="evenodd" clip-rule="evenodd" fill="#EFAF3E" d="M543.7,482l2.9-1.9c-0.6-0.9-1.6-1.5-2.8-1.6
						c-0.9,0-1.7,0.3-2.3,0.8L543.7,482L543.7,482z"/>
				</g>
				<g id="XMLID_539_">
					<path id="XMLID_542_" fill-rule="evenodd" clip-rule="evenodd" fill="#6DBABF" d="M531.7,481.8c-0.1,1.9,1.4,3.4,3.3,3.5
						c1.9,0.1,3.4-1.4,3.5-3.3c0-1.2-0.5-2.2-1.4-2.9c-0.5-0.4-1.2-0.6-1.9-0.6l0,0C533.4,478.5,531.8,479.9,531.7,481.8z"/>
					<path id="XMLID_541_" fill-rule="evenodd" clip-rule="evenodd" fill="#EFAF3E" d="M531.7,481.8l3.4,0.1l0,0l0,0l-1-3.3
						C532.8,479.1,531.8,480.3,531.7,481.8z"/>
					<path id="XMLID_540_" fill-rule="evenodd" clip-rule="evenodd" fill="#EB6026" d="M534.2,478.7l1,3.3l0,0l2.3,2.4
						c0.6-0.6,1-1.4,1.1-2.4c0-1.1-0.4-2-1.2-2.7c-0.6-0.5-1.3-0.8-2.1-0.8C534.9,478.5,534.5,478.6,534.2,478.7z"/>
				</g>
			</g>
		</g>
		<path id="XMLID_536_" fill-rule="evenodd" clip-rule="evenodd" fill="#39383A" d="M119.7,454.8c0.1,0,25.7,22.5,41.2,26.2
			c13.8,3.3,37.5-4.9,37.5-4.8l5.8,10.7c-0.1,0-30.5,9.7-49.5,5.1c-17.3-4.2-42.3-21.6-42.4-21.6
			C103.8,465.5,112.4,451.4,119.7,454.8z"/>
		<path id="XMLID_535_" fill-rule="evenodd" clip-rule="evenodd" fill="#43525A" d="M413.1,504.7c0,0-5.7-45-11.5-55.2
			c-11.1-19.9-57.9-14.4-58.9,0.6c-0.3,4.8,11.1,62,11.1,62L413.1,504.7z"/>
		<path id="XMLID_534_" fill-rule="evenodd" clip-rule="evenodd" fill="#FFFFFF" d="M421.2,506.2c0,0-20-47.6-20.5-50.2
			c-0.4-2.6-22.3-1-30,4.3c-7.7,5.3,6.9,55,6.9,55L421.2,506.2z"/>
		<path id="XMLID_533_" fill-rule="evenodd" clip-rule="evenodd" fill="#404041" d="M412.4,457.8c-2.1-0.2-17.2-4.1-17.2-4.1l-0.3,5
			c0,0,7.8,11.3,11.4,21c3.6,9.7,6.3,21.8,6.3,21.8h10.9c0,0-4.7-12.1-7.8-23c6.9,7.3,15.8,16.8,15.8,16.8s12.7-1.2,12.7-2
			c0-0.8-23.1-26.7-23.1-26.7L412.4,457.8z"/>
		<path id="XMLID_532_" fill-rule="evenodd" clip-rule="evenodd" fill="#444444" d="M394.7,458.3c1.5,0.4,13.8,3.8,13.8,3.8
			l0.6,16.1l3-1.5l2.3,21.4c0,0-1.3,0.5-2.3-0.9c-1.1-1.5-7-17.5-9.3-23.7C400.5,467.4,394.7,458.3,394.7,458.3z"/>
		<path id="XMLID_531_" fill-rule="evenodd" clip-rule="evenodd" fill="#404041" d="M391.4,462.4c0,0,7.9,38,7.9,38.6
			c0,0.6,9.8,4.4,9.8,4.4l1.4-6.1l-16.2-37.7L391.4,462.4z"/>
		<path id="XMLID_530_" fill-rule="evenodd" clip-rule="evenodd" fill="#FBD2C0" d="M391.9,449.5l2.3,7.5c0,0-1.5,2.8-2,3.1
			c-0.5,0.3-7.7-0.5-9.4-0.9c-1.7-0.5-5.4-2.7-5.3-3c0.2-0.3,0.1-4.7,0.1-4.7L391.9,449.5z"/>
		<path id="XMLID_529_" fill-rule="evenodd" clip-rule="evenodd" fill="#404041" d="M387.1,501.6c0,0,1.8-22-0.1-28.8
			c-1.9-6.7-3.6-10.5-3.4-11.9c0.2-1.4-7.4-3.7-7.4-3.7l-19.4,7.1l-8.5,35.5c0,0,14.1,5.3,13.2,4.2c-0.9-1.1,4.7-20.1,4.7-20.1
			s6,21.5,6.8,21.5C373.8,505.3,387.1,501.6,387.1,501.6z"/>
		<path id="XMLID_528_" fill-rule="evenodd" clip-rule="evenodd" fill="#444444" d="M381.8,456.2c-1.1,1.1-10.5,10-10.5,10
			l15.4,16.1l-5.4-1.4l6.9,17.4c0,0,2.5,1.1,2.7-0.7c0.2-1.8-2.7-18.4-3.9-24.9C385.8,466.3,381.8,456.2,381.8,456.2z"/>
		<polygon id="XMLID_527_" fill-rule="evenodd" clip-rule="evenodd" fill="#5D8584" points="392.3,482.9 423.6,446.7 425,469.6 		
			"/>
		<path id="XMLID_526_" fill-rule="evenodd" clip-rule="evenodd" fill="#E6E7E8" d="M421.8,470.9l-0.8-18.5l-20.9,27.3l0.6,21.9
			C407.5,490.5,413.9,481.5,421.8,470.9z"/>
		<polygon id="XMLID_525_" fill-rule="evenodd" clip-rule="evenodd" fill="#638F8E" points="396.6,463.2 425,469.6 400.7,507.6 
			372.3,501.3 		"/>
		<path id="XMLID_524_" fill-rule="evenodd" clip-rule="evenodd" fill="#FBD2C0" d="M387.5,496.3c0,0,12.7-5.6,13.7-8.3
			c1.1-2.7,4-9.7,6-9.3c2,0.4-1.1,9.4-0.2,9.1c0.9-0.4,8.2-2.8,8.2-2.8s1.1,1.5,1.1,4.6c0,3.1-3,6.9-4.6,8.1
			c-1.5,1.2-7.3,1.8-9.2,1.9c-1.9,0.1-5,1.7-5.9,2C395.8,501.8,387.5,496.3,387.5,496.3z"/>
		<path id="XMLID_523_" fill-rule="evenodd" clip-rule="evenodd" fill="#E6E7E8" d="M375.6,452.2c0,0-0.2,6,0,6s10,6.8,10,6.8
			l4.2-5.7L375.6,452.2z"/>
		<path id="XMLID_522_" fill-rule="evenodd" clip-rule="evenodd" fill="#E6E7E8" d="M398,461c-0.5-0.3-5.7-2.8-5.7-2.8l0.2-8.1
			l3.7,3.9L398,461z"/>
		<g id="XMLID_509_">
			<path id="XMLID_521_" fill-rule="evenodd" clip-rule="evenodd" fill="#43525A" d="M79.8,544.3c11.7-5.6,19.9-7,34.7-7
				c14.8,0,30.5,4.1,43.3,11.2l0,0c0,2.2-1.2,4-2.6,4H74.7l0,0l0,0c-2.1,0.3-4.2-1.2-4.5-3.3L54.5,447.9c-0.3-2.1,1.1-4.5,3.3-4.5
				C76.5,443.4,82.3,528.7,79.8,544.3z"/>
			<g id="XMLID_510_">
				<path id="XMLID_520_" fill-rule="evenodd" clip-rule="evenodd" fill="#404041" d="M97.4,561.7c0.5,0.9,0.2,2.1-0.7,2.8l-3.8,2.8
					c-1,0.7-2.4,0.5-3.1-0.4l0,0c-0.7-1-0.5-2.4,0.4-3.1l3.8-2.8c0.9-0.7,2.1-0.6,2.8,0.1l2.6-1.8l0.3-3.5l0.8,0.1l-0.3,3.7l0,0.2
					l-0.2,0.1L97.4,561.7z"/>
				<rect id="XMLID_519_" x="111.2" y="554" fill-rule="evenodd" clip-rule="evenodd" fill="#808184" width="6.3" height="25.4"/>
				<rect id="XMLID_518_" x="114.3" y="554" fill-rule="evenodd" clip-rule="evenodd" fill="#8D8D8D" width="3.1" height="25.4"/>
				<path id="XMLID_517_" fill-rule="evenodd" clip-rule="evenodd" fill="#404041" d="M156.1,552c0,0.1,0,0.3,0,0.4l0,0
					c0,2.4-1.9,4.3-4.3,4.3h-16c-1.8,1.5-10.8,2.7-21.6,2.7s-19.7-1.2-21.6-2.7h-16c-2.4,0-4.3-1.9-4.3-4.3l0,0c0-0.1,0-0.3,0-0.4
					H156.1z"/>
				<g id="XMLID_511_">
					<path id="XMLID_516_" fill-rule="evenodd" clip-rule="evenodd" fill="#404041" d="M109.3,574.8h9.9v22.4l22.9,3.9
						c1.6,0.3,2.9,1.3,2.9,2.9v0c0,1.6-1.3,3.1-2.9,2.9l-25-4.3h-5.7l-25,4.3c-1.6,0.3-2.9-1.3-2.9-2.9v0c0-1.6,1.3-2.6,2.9-2.9
						l22.9-3.9V574.8z"/>
					<path id="XMLID_515_" fill-rule="evenodd" clip-rule="evenodd" fill="#6D6E70" d="M86.1,610.9c2.1,0,3.8-1.7,3.8-3.8
						c0-2.1-1.7-3.8-3.8-3.8c-2.1,0-3.8,1.7-3.8,3.8C82.2,609.1,84,610.9,86.1,610.9z"/>
					<path id="XMLID_514_" fill-rule="evenodd" clip-rule="evenodd" fill="#6D6E70" d="M142.2,610.9c2.1,0,3.8-1.7,3.8-3.8
						c0-2.1-1.7-3.8-3.8-3.8c-2.1,0-3.8,1.7-3.8,3.8C138.3,609.1,140.1,610.9,142.2,610.9z"/>
					<polygon id="XMLID_513_" fill-rule="evenodd" clip-rule="evenodd" fill="#404041" points="110.8,597.2 114.3,597.2 
						117.8,597.2 116.5,607.3 114.3,607.3 112.1,607.3 					"/>
					<path id="XMLID_512_" fill-rule="evenodd" clip-rule="evenodd" fill="#6D6E70" d="M114.2,610.9c2.1,0,3.8-1.7,3.8-3.8
						c0-2.1-1.7-3.8-3.8-3.8c-2.1,0-3.8,1.7-3.8,3.8C110.3,609.1,112.1,610.9,114.2,610.9z"/>
				</g>
			</g>
		</g>
		<path id="XMLID_508_" fill-rule="evenodd" clip-rule="evenodd" fill="#39383A" d="M97.2,518.5c-1.4,3.4-0.9,6.5,1.1,12.7
			c2,6.2,7,10,15,11.1c7.9,1.1,43.8,4.7,43.8,4.7l2,57.7l23.1,0.6c-1.1-17.1,1.7-73.6-18.6-77.8l-31.5-9.5L97.2,518.5z"/>
		<path id="XMLID_507_" fill-rule="evenodd" clip-rule="evenodd" fill="#3C3D3E" d="M95.4,518.3c-1.4,3.4-0.9,6.5,1.1,12.7
			c2,6.2,7,10,15,11.1c7.9,1.1,56.2,3.9,56.2,3.9l17.1,60.8l18.3-2c-1.1-17.1-8.9-75.4-29.3-79.6l-43.5-7.5L95.4,518.3z"/>
		
			<rect id="XMLID_506_" x="176.2" y="505.3" fill-rule="evenodd" clip-rule="evenodd" fill="#58595B" width="370.7" height="105.5"/>
		<path id="XMLID_505_" fill-rule="evenodd" clip-rule="evenodd" fill="#FBD2C0" d="M305.2,534.9c-1.2,5.6-1.1,10.1,0.9,23
			c-2.7,9.5-0.4,34.6-0.5,35.6c-0.4,4-1.1,9.6-0.7,11.8c0.3,1.7,6.5,0.3,6.5,0.3s2.8-0.4,0.5-7.2c-1.3-3.9-0.3-6.9,1.1-10.9
			c3.7-10.5,8.5-24.9,7.6-33.2c0.5-9.1,3.5-14-0.3-18.5C320.3,530.9,305.2,534.9,305.2,534.9z"/>
		<path id="XMLID_504_" fill-rule="evenodd" clip-rule="evenodd" fill="#FBD2C0" d="M302,534.9c1.2,5.6,1.1,10.1-0.9,23
			c4.2,14.8,1.4,26,1.7,40.2c0.4,4,0.9,2.8,0.5,5c-0.3,1.7-6.5,0.3-6.5,0.3s-2.8,3.1-0.6-3.7c1.4-4.3-9-28.7-7.6-41.1
			c1-9.2-4.6-16.6-4.5-22.4C284.2,531.4,302,534.9,302,534.9z"/>
		<rect id="XMLID_503_" x="176.2" y="501.6" fill-rule="evenodd" clip-rule="evenodd" fill="#404041" width="370.7" height="4.6"/>
		<g id="XMLID_500_">
			<rect id="XMLID_502_" x="143.6" y="492.6" fill-rule="evenodd" clip-rule="evenodd" fill="#6D6E70" width="436" height="10.2"/>
			<rect id="XMLID_501_" x="143.6" y="492.6" fill-rule="evenodd" clip-rule="evenodd" fill="#808184" width="436" height="5.1"/>
		</g>
		<path id="XMLID_499_" fill-rule="evenodd" clip-rule="evenodd" fill="#FBD2C0" d="M476.1,404.6c14.3-7.1,24.5-4.3,30.1,11.8
			c0.8,2.2-0.1,7,0.1,8c3.8,4.1,5.9,6.1,6.4,8.2c0.2,0.9-1.7,2.2-3.2,3c0.6,4.3,0.2,10.3-2.2,13.5c-2.1,2.8-5.6,3.1-9,4.8
			c-11.3,5.6-25.9-2.3-31.9-15.4C460.4,425.3,464.8,410.1,476.1,404.6z"/>
		<path id="XMLID_498_" fill-rule="evenodd" clip-rule="evenodd" fill="#74584B" d="M506.6,421.6c0.6-5-10.1,2.5-9.8,4.2
			C500.1,423.6,502.5,421.9,506.6,421.6z"/>
		<path id="XMLID_497_" fill-rule="evenodd" clip-rule="evenodd" fill="#74584B" d="M510.2,416.1c-0.2,2.9-3.1,7.6-2.8,7.1
			c0.2-0.5,0.7-4.3-1.1-6.6c-1.6,2.8-11.6,8.8-11.6,8.8l2.1,13.7l-2,1.9c0,0-1.1-9.5-2.6-11c-1.4-1.4-1.1-2-4.5-1.5
			c-3.3,0.5-4.8,3.8-4.2,7.3c0.5,3.5,7.5,8.1,7.5,8.1s0.6,3.9-1.7,7.1c-2.3,3.2-6.2,4.5-6.2,4.5s-6.6,0.3-8.6-0.9
			c-2-1.2-8.6-12.2-11.5-17.4c-2.9-5.1-3.8-16.5-2.1-21.2c1.7-4.7,5.1-6.3,5.1-6.3s2.3-3.2,7.3-6.6
			C485.5,394.5,511.7,397.6,510.2,416.1z"/>
		<polygon id="XMLID_496_" fill-rule="evenodd" clip-rule="evenodd" fill="#3C3D3E" points="513.5,531.9 519.2,602.6 538.3,598.7 
			533.1,533.1 		"/>
		<path id="XMLID_495_" fill-rule="evenodd" clip-rule="evenodd" fill="#3C3D3E" d="M486.9,522.3c-1.1,3.4-0.7,6.5,0.9,12.7
			c1.7,6.2,5.7,10,12.2,11.1c6.5,1.1,45.9,3.9,45.9,3.9l9.2,55.3l21.1-4.8c-6.7-18.6-12.6-62.5-19.9-68.1l-40.9-10.7L486.9,522.3z"
			/>
		<path id="XMLID_494_" fill-rule="evenodd" clip-rule="evenodd" fill="#404041" d="M471.7,454c2.2-1.6,21,0.2,22.9,0.1l7.7-0.5
			l4.7,6.9c5.4,11.2,19.1,71.2,17.7,72c-12.7,7.2-49.2,4.3-52.6,1.6C468.8,531.4,471.7,454,471.7,454z"/>
		<g id="XMLID_480_">
			<path id="XMLID_493_" fill-rule="evenodd" clip-rule="evenodd" fill="#43525A" d="M487.8,537.3c1.5,0.3,38.3-0.9,43.3,11.2l0,0
				c0,2.2-1.2,4-2.6,4h-80.6l0,0l0,0c-2.1,0.3-4.2-1.2-4.5-3.3l-15.7-101.3c-0.3-2.1,1.1-4.2,3.3-4.5
				C506.1,433.1,486.3,537,487.8,537.3z"/>
			<path id="XMLID_492_" fill-rule="evenodd" clip-rule="evenodd" fill="#3D4950" d="M487.8,537.3c1.5,0.3,38.3-0.9,43.3,11.2l0,0
				c0,1.2-0.3,2.2-0.9,2.9c-2.7-2-7.4-5-13.3-7c-9.8-3.3-33.8-2.3-33.8-2.3s0.5-5.3,1.4-10c0.9-4.7-1.5-44.9-5.7-57.3
				c-4.2-12.4-15.7-25.1-25.2-27.3c-9.5-2.3-25.8-0.7-25.8-0.7c0.2-1.7,1.5-3.2,3.3-3.5C506.1,433.1,486.3,537,487.8,537.3z"/>
			<g id="XMLID_481_">
				<path id="XMLID_491_" fill-rule="evenodd" clip-rule="evenodd" fill="#404041" d="M470.7,561.7c0.5,0.9,0.2,2.1-0.7,2.8
					l-3.8,2.8c-1,0.7-2.4,0.5-3.1-0.4l0,0c-0.7-1-0.5-2.4,0.4-3.1l3.8-2.8c0.9-0.7,2.1-0.6,2.8,0.1l2.6-1.8l0.3-3.5l0.8,0.1
					l-0.3,3.7l0,0.2l-0.2,0.1L470.7,561.7z"/>
				<rect id="XMLID_490_" x="484.5" y="554" fill-rule="evenodd" clip-rule="evenodd" fill="#808184" width="6.3" height="25.4"/>
				<rect id="XMLID_489_" x="487.6" y="554" fill-rule="evenodd" clip-rule="evenodd" fill="#8D8D8D" width="3.1" height="25.4"/>
				<path id="XMLID_488_" fill-rule="evenodd" clip-rule="evenodd" fill="#404041" d="M529.4,552c0,0.1,0,0.3,0,0.4l0,0
					c0,2.4-1.9,4.3-4.3,4.3h-16c-1.8,1.5-10.8,2.7-21.6,2.7c-10.8,0-19.7-1.2-21.6-2.7h-16c-2.4,0-4.3-1.9-4.3-4.3l0,0
					c0-0.1,0-0.3,0-0.4H529.4z"/>
				<g id="XMLID_482_">
					<path id="XMLID_487_" fill-rule="evenodd" clip-rule="evenodd" fill="#404041" d="M482.6,574.8h9.9v22.4l22.9,3.9
						c1.6,0.3,2.9,1.3,2.9,2.9v0c0,1.6-1.3,3.1-2.9,2.9l-25-4.3h-5.7l-25,4.3c-1.6,0.3-2.9-1.3-2.9-2.9v0c0-1.6,1.3-2.6,2.9-2.9
						l22.9-3.9V574.8z"/>
					<path id="XMLID_486_" fill-rule="evenodd" clip-rule="evenodd" fill="#6D6E70" d="M459.4,610.9c2.1,0,3.8-1.7,3.8-3.8
						c0-2.1-1.7-3.8-3.8-3.8c-2.1,0-3.8,1.7-3.8,3.8C455.5,609.1,457.3,610.9,459.4,610.9z"/>
					<path id="XMLID_485_" fill-rule="evenodd" clip-rule="evenodd" fill="#6D6E70" d="M515.5,610.9c2.1,0,3.8-1.7,3.8-3.8
						c0-2.1-1.7-3.8-3.8-3.8c-2.1,0-3.8,1.7-3.8,3.8C511.6,609.1,513.4,610.9,515.5,610.9z"/>
					<polygon id="XMLID_484_" fill-rule="evenodd" clip-rule="evenodd" fill="#404041" points="484.1,597.2 487.6,597.2 
						491.1,597.2 489.8,607.3 487.6,607.3 485.4,607.3 					"/>
					<path id="XMLID_483_" fill-rule="evenodd" clip-rule="evenodd" fill="#6D6E70" d="M487.5,610.9c2.1,0,3.8-1.7,3.8-3.8
						c0-2.1-1.7-3.8-3.8-3.8c-2.1,0-3.8,1.7-3.8,3.8C483.6,609.1,485.3,610.9,487.5,610.9z"/>
				</g>
			</g>
		</g>
		<path id="XMLID_479_" fill-rule="evenodd" clip-rule="evenodd" fill="#FFFFFF" d="M126,439.4c0,0-15.7-8.5-19.7,28.9
			c-2.1,19.3-20.1,50.1-10.8,50.2l36.7-0.6c3.2,0.7,7.4-4.5,6.6-19.7C137.6,475.7,147.3,442.8,126,439.4z"/>
		<path id="XMLID_478_" fill-rule="evenodd" clip-rule="evenodd" fill="#58595B" d="M138.1,445.6c-0.2,0.1,2.1,1.3,2.3,5.2
			c1,17.9,3.5,68,3.5,68l-7.8-8.8l0.1-63.8L138.1,445.6z"/>
		<path id="XMLID_477_" fill-rule="evenodd" clip-rule="evenodd" fill="#FBD2C0" d="M137,435.1c-0.8,0.7-2.3,10.2-2.3,10.2
			l-14.5-5.5l3.1-9.6L137,435.1z"/>
		<path id="XMLID_476_" fill-rule="evenodd" clip-rule="evenodd" fill="#FBD2C0" d="M126.3,392.5c11.6-3.9,26.7,1.3,28.7,14.5
			c0.6,3.7-2.3,6.3-2,8.1c3.2,4.1,5.3,3.3,5.5,5.3c0.1,0.9-1.9,1.8-3.4,2.4c0.8,29.8-37.4,13.2-42-0.4
			C108.8,409.9,114.7,396.5,126.3,392.5z"/>
		<path id="XMLID_475_" fill-rule="evenodd" clip-rule="evenodd" fill="#64433B" d="M156.4,395.7c3.4,2.8,3.4,8.9,3.2,8.2
			c-0.3-0.8-2.6-2.2-4.5-3c0.1,0.3,0.1-0.8,0.1,0.9c0,1.7-3.3,5.5-3.3,5.5s-0.5-1.2-1.1-2.5c-0.6-1.3-1-1.3-1.6-1.5
			c-0.3,0.1-0.7,0.3-1.1,0.5c0,0.5,0.4,0.4-1.3,2.3c-1.7,1.9-6,4.4-5.6,4.2c0.4-0.1,2.6-2.2,0.7-4.2c-1.3,0.4-0.9,0.4-3.7,1.1
			c-2.9,0.7-7,0.4-8.2,3c-1.2,2.6,1.6,14.1,0.7,14c-0.8,0-3,0.1-3,0.1s-0.2-8.3-1.6-11c-1.4-2.7-2.9-3.5-6.4-0.9
			c-5.2,3.9-1.2,10.7,3.2,13.7c0,0,1.2,6.9,0.5,8.2c-0.7,1.3-2.8,2.8-2.5,2.6c0.3-0.3-0.3-2.4-0.3-2.4l-1.5,1.5c0,0-1.3-2.2-1.2-2.8
			c0.1-0.6-4.9-7.5-7.1-12.5c-4.2-9.8,0.4-23.4,6.4-23.5C120.7,390.8,148.7,384.5,156.4,395.7z"/>
		<path id="XMLID_474_" fill-rule="evenodd" clip-rule="evenodd" fill="#404041" d="M154.8,411.2l-0.9,0l-0.1,1.7
			c-4.9-0.2-29.3-1.3-29.7-0.9c-0.5,0.5,0.3,1,0.3,1l29.2,2.1l-0.4,7.3l0.9,0l0.5-9.6l0,0L154.8,411.2z"/>
		
			<ellipse id="XMLID_473_" transform="matrix(-0.3204 -0.9473 0.9473 -0.3204 -234.5559 668.3535)" fill-rule="evenodd" clip-rule="evenodd" fill="#FBD2C0" cx="122.5" cy="418.3" rx="8.2" ry="5.8"/>
		<path id="XMLID_472_" fill-rule="evenodd" clip-rule="evenodd" fill="#F8A98E" d="M122.3,412.8c-0.4,0.1-2.7,0.4-3.5,2.4
			c-0.8,2,0.9,6.5,2.4,7.4c1.5,0.9,3.5,0.9,4.6-0.4c1-1.3,1.1-2.5-0.2-2.8c-1.3-0.4-2.4-0.7-2.3-1.4c0.2-0.7,0.8-0.7,1.1-1.4
			c0.3-0.7-0.5-2-1.2-3C122.7,412.6,122.3,412.8,122.3,412.8z"/>
		<path id="XMLID_471_" fill-rule="evenodd" clip-rule="evenodd" fill="#D0D2D3" d="M114.1,438.7c0.6-0.8,2.4-5.5,2.4-5.5l21.2,7.9
			c0,0,1,11,1.6,10.8C139.9,451.6,114.1,438.7,114.1,438.7z"/>
		<path id="XMLID_470_" fill-rule="evenodd" clip-rule="evenodd" fill="#404041" d="M83.1,532.4c0,0,29.7,6.1,36.8,5
			c7-1.1,14.8-42.8,16.9-50c2.4-8.1,6.2-43.5-6.6-46.9c-4.2-1.1-17-4.8-17-4.8C101.6,465.3,94,507.9,83.1,532.4z"/>
		<path id="XMLID_469_" fill-rule="evenodd" clip-rule="evenodd" fill="#FFFFFF" d="M207.7,484.4c0.8-1.8,8.3-9.4,11.8-20.1
			c3.5-10.7,3.6-19.5,3.6-19.5h-18.1c-0.6,16.8-16.3,39.7-15.3,40.3C190.8,485.7,207.7,484.4,207.7,484.4z"/>
		<path id="XMLID_468_" fill-rule="evenodd" clip-rule="evenodd" fill="#FBD2C0" d="M202.5,481.6c1-0.3,4.1-3.9,5.1-4.4
			c1.1-0.5,3.6,0.5,4,0.5c0.4,0.1,2.9-2,5.2,0.7c2.3,2.7,3.1,10.5,2.1,12c-1,1.5-12.5,1.2-14.3,1.1
			C202.9,491.5,202.5,481.6,202.5,481.6z"/>
		<path id="XMLID_467_" fill-rule="evenodd" clip-rule="evenodd" fill="#E6E7E8" d="M199.3,481.4c0.3,0,4.9-0.9,5-0.6l1.7,10.8
			l-4.4-0.2L199.3,481.4z"/>
		<path id="XMLID_466_" fill-rule="evenodd" clip-rule="evenodd" fill="#404041" d="M133.3,442.2c0.1,0.1,15.5,25.4,29.8,32.4
			c12.7,6.2,38.5,5.8,38.5,5.8l1.9,11.8c-0.1,0-30.5,2.8-48.1-5.8c-16-7.8-36.6-30.2-36.7-30.3C111.6,449.6,126.9,437.4,133.3,442.2
			z"/>
		<path id="XMLID_465_" fill-rule="evenodd" clip-rule="evenodd" fill="#FBD2C0" d="M254,401.8c14.3-7.1,24.5-4.3,30.1,11.8
			c0.8,2.2-0.1,7,0.1,8c3.8,4.1,5.7,4.4,6.2,6.5c0.2,0.9-1.7,2.2-3.2,3c1.2,8.1-4.4,14.6-11.7,18.2c-11.3,5.6-25.3-0.5-31.3-13.6
			C238.3,422.6,242.7,407.4,254,401.8z"/>
		<path id="XMLID_464_" fill-rule="evenodd" clip-rule="evenodd" fill="#F8A770" d="M284.8,417.6c0.5-3.8-7.8,1.8-7.6,3.2
			C279.8,419.1,281.7,417.9,284.8,417.6z"/>
		<path id="XMLID_463_" fill-rule="evenodd" clip-rule="evenodd" fill="#3C3D3E" d="M265.2,521.3c1.8-0.3,10.7,1.7,18,3.6
			c7.3,1.8,38.7,5.6,38.3,10.7c-0.4,5.1-3,9.9-6.7,13.1c-3.7,3.2-47.8,7.6-56.9-0.5C248.9,540.1,265.2,521.3,265.2,521.3z"/>
		<path id="XMLID_462_" fill-rule="evenodd" clip-rule="evenodd" fill="#404041" d="M244.1,454.6c2.2-1.6,20.9-1.8,20.9-1.8
			l15.4,6.7c0,0,8.8,18.3,8.8,22.8c0,4.6-1.7,7.9-4.7,15.4c-3,7.6-1.1,25.3-1.4,27.2c-0.3,1.8-26.3,4.6-29.6,1.9
			C250.3,524,244.1,454.6,244.1,454.6z"/>
		<g id="XMLID_453_">
			<path id="XMLID_461_" fill-rule="evenodd" clip-rule="evenodd" fill="#BBBDBF" d="M337,473.8l-0.7-0.4l1-1.6
				c0.1-0.1,0.2-0.1,0.3-0.1l0.3,0.2c0.1,0.1,0.1,0.2,0.1,0.3L337,473.8z"/>
			<path id="XMLID_460_" fill-rule="evenodd" clip-rule="evenodd" fill="#BBBDBF" d="M337.7,471.9l0.2,0.1c0.1,0.1,0.1,0.2,0.1,0.3
				l-0.5,0.8l-0.4,0.1l0.1-0.4L337.7,471.9z"/>
			<path id="XMLID_459_" fill-rule="evenodd" clip-rule="evenodd" fill="#58595B" d="M336.9,475l-1.7-1.1l0.9-1.4
				c0-0.1,0.1-0.1,0.2-0.1c0.1,0,0.1,0,0.2,0l1.3,0.8c0.1,0,0.1,0.1,0.1,0.2c0,0.1,0,0.1,0,0.2L336.9,475z"/>
			<path id="XMLID_458_" fill-rule="evenodd" clip-rule="evenodd" fill="#404041" d="M337,472.8L337,472.8l0.4,0.3l0.3,0.2
				c0.1,0,0.1,0.1,0.1,0.2c0,0.1,0,0.1,0,0.2L337,475l-0.7-0.9L337,472.8L337,472.8z"/>
			<polygon id="XMLID_457_" fill-rule="evenodd" clip-rule="evenodd" fill="#58595B" points="327.3,486.7 335.8,473 337.5,474.1 
				329,487.8 			"/>
			<polygon id="XMLID_456_" fill-rule="evenodd" clip-rule="evenodd" fill="#404041" points="328.1,487.2 336.6,473.5 337.5,474.1 
				329,487.8 			"/>
			<path id="XMLID_455_" fill-rule="evenodd" clip-rule="evenodd" fill="#ABACAE" d="M337.5,474.1l0.1-0.2l-1.9-1.2
				c-0.1-0.1-0.2-0.1-0.3,0l-2.3,3.7l0.1,0.5l0.8-1.3l0-0.2l1.5-2.4c0.1-0.1,0.1-0.2,0.3-0.1L337.5,474.1z"/>
			<path id="XMLID_454_" fill-rule="evenodd" clip-rule="evenodd" fill="#A7A7A8" d="M337.7,471.9l0.2,0.1c0.1,0.1,0.1,0.2,0.1,0.3
				l-0.5,0.8l-0.2-0.1l-0.1-0.1L337.7,471.9z"/>
		</g>
		<path id="XMLID_452_" fill-rule="evenodd" clip-rule="evenodd" fill="#FBD2C0" d="M332.5,492.6c3.8,0,6.9-3,6.9-6.7
			c0-3.7-3.1-6.7-6.9-6.7c-3.8,0-6.9,3-6.9,6.7C325.5,489.6,328.6,492.6,332.5,492.6z"/>
		<path id="XMLID_451_" fill-rule="evenodd" clip-rule="evenodd" fill="#404041" d="M280.5,459.5c0.1,0.1,17.2,19.6,31.5,26.6
			c12.7,6.2,15.2-2.2,17-3c7.3-3.2,9.5,7.4,3.3,11.7c-0.1,0-11.2,9.2-28.8,0.6c-16-7.8-33.6-22.4-33.7-22.4
			C262.7,466.5,274,454.6,280.5,459.5z"/>
		<path id="XMLID_450_" fill-rule="evenodd" clip-rule="evenodd" fill="#F7931E" d="M280.4,399.5c0.9,0.5,1.9,1.4,3.3,3.1
			c4.5,5.5,4.4,8.7,1.9,16.4c0.4-6.1,1.6-8.7-3.6-13.6c0.1,1.7,0,3.6-0.4,5.7c-1.5,7.6-5.7,13-7.9,20.4c-2.8,9.4,7.9,23.3-5.8,30.5
			c0,0,0.2-1.5-0.1-4.2c-0.3-2.6-1-4.7-1-4.7s0.3,1.4-1.9,5.5c-2.2,4.1-4.9,5.2-3.6,4.5c1.3-0.7,1.5-6.5,1.5-6.5s-7.9,8.5-7.5,7.8
			c0.4-0.7,0.4-7.2-0.2-6.7c-0.6,0.5-6.8,7.7-6,6.9c0.8-0.8,1.1-7.1,1.1-7.1l-7.8,7.3c0,0,1.2-4.7,0.8-8.4c-0.3-3.7-3.1-11.6-6-17.7
			C220.3,402.7,264.9,381.7,280.4,399.5z"/>
		<g id="XMLID_436_">
			<path id="XMLID_449_" fill-rule="evenodd" clip-rule="evenodd" fill="#43525A" d="M276.4,537.3c1.5,0.3,38.3-0.9,43.3,11.2l0,0
				c0,2.2-1.2,4-2.6,4h-80.6l0,0l0,0c-2.1,0.3-4.2-1.2-4.5-3.3l-15.7-101.3c-0.3-2.1,1.1-4.2,3.3-4.5
				C294.6,433.1,274.8,537,276.4,537.3z"/>
			<path id="XMLID_448_" fill-rule="evenodd" clip-rule="evenodd" fill="#3D4950" d="M276.4,537.3c1.5,0.3,38.3-0.9,43.3,11.2l0,0
				c0,1.2-0.3,2.2-0.9,2.9c-2.7-2-7.4-5-13.3-7c-9.8-3.3-33.8-2.3-33.8-2.3s0.5-5.3,1.4-10c0.9-4.7-1.5-44.9-5.7-57.3
				c-4.2-12.4-15.7-25.1-25.2-27.3c-9.5-2.3-25.8-0.7-25.8-0.7c0.2-1.7,1.5-3.2,3.3-3.5C294.6,433.1,274.8,537,276.4,537.3z"/>
			<g id="XMLID_437_">
				<path id="XMLID_447_" fill-rule="evenodd" clip-rule="evenodd" fill="#404041" d="M259.2,561.7c0.5,0.9,0.2,2.1-0.7,2.8
					l-3.8,2.8c-1,0.7-2.4,0.5-3.1-0.4l0,0c-0.7-1-0.5-2.4,0.4-3.1l3.8-2.8c0.9-0.7,2.1-0.6,2.8,0.1l2.6-1.8l0.3-3.5l0.8,0.1
					l-0.3,3.7l0,0.2l-0.2,0.1L259.2,561.7z"/>
				<rect id="XMLID_446_" x="273" y="554" fill-rule="evenodd" clip-rule="evenodd" fill="#808184" width="6.3" height="25.4"/>
				<rect id="XMLID_445_" x="276.1" y="554" fill-rule="evenodd" clip-rule="evenodd" fill="#8D8D8D" width="3.1" height="25.4"/>
				<path id="XMLID_444_" fill-rule="evenodd" clip-rule="evenodd" fill="#404041" d="M317.9,552c0,0.1,0,0.3,0,0.4l0,0
					c0,2.4-1.9,4.3-4.3,4.3h-16c-1.8,1.5-10.8,2.7-21.6,2.7c-10.8,0-19.7-1.2-21.6-2.7h-16c-2.4,0-4.3-1.9-4.3-4.3l0,0
					c0-0.1,0-0.3,0-0.4H317.9z"/>
				<g id="XMLID_438_">
					<path id="XMLID_443_" fill-rule="evenodd" clip-rule="evenodd" fill="#404041" d="M271.2,574.8h9.9v22.4l22.9,3.9
						c1.6,0.3,2.9,1.3,2.9,2.9v0c0,1.6-1.3,3.1-2.9,2.9l-25-4.3h-5.7l-25,4.3c-1.6,0.3-2.9-1.3-2.9-2.9v0c0-1.6,1.3-2.6,2.9-2.9
						l22.9-3.9V574.8z"/>
					<path id="XMLID_442_" fill-rule="evenodd" clip-rule="evenodd" fill="#6D6E70" d="M247.9,610.9c2.1,0,3.8-1.7,3.8-3.8
						c0-2.1-1.7-3.8-3.8-3.8c-2.1,0-3.8,1.7-3.8,3.8C244.1,609.1,245.8,610.9,247.9,610.9z"/>
					<path id="XMLID_441_" fill-rule="evenodd" clip-rule="evenodd" fill="#6D6E70" d="M304,610.9c2.1,0,3.8-1.7,3.8-3.8
						c0-2.1-1.7-3.8-3.8-3.8c-2.1,0-3.8,1.7-3.8,3.8C300.2,609.1,301.9,610.9,304,610.9z"/>
					<polygon id="XMLID_440_" fill-rule="evenodd" clip-rule="evenodd" fill="#404041" points="272.6,597.2 276.1,597.2 
						279.6,597.2 278.3,607.3 276.1,607.3 273.9,607.3 					"/>
					<path id="XMLID_439_" fill-rule="evenodd" clip-rule="evenodd" fill="#6D6E70" d="M276,610.9c2.1,0,3.8-1.7,3.8-3.8
						c0-2.1-1.7-3.8-3.8-3.8s-3.8,1.7-3.8,3.8C272.2,609.1,273.9,610.9,276,610.9z"/>
				</g>
			</g>
		</g>
		<path id="XMLID_435_" fill-rule="evenodd" clip-rule="evenodd" fill="#404041" d="M281.7,420.5c1.9-0.2,3.3-1.5,3.2-1.4
			c-0.1,0.5-0.7,1.3-1.5,2c-0.2,0.1-0.3,0.2-0.5,0.3c0.2,0.3,0.3,0.7,0.3,1.1c0.2,1.2-0.3,2.3-1,2.4c-0.7,0.1-1.4-0.8-1.6-2.1
			c-0.1-0.9,0.1-1.7,0.5-2.1v0h0C281.4,420.7,281.6,420.6,281.7,420.5z"/>
		
			<ellipse id="XMLID_434_" transform="matrix(-0.1019 -0.9948 0.9948 -0.1019 -8.4404 857.9878)" fill-rule="evenodd" clip-rule="evenodd" fill="#FBD2C0" cx="383.1" cy="432.8" rx="22.4" ry="20.5"/>
		<path id="XMLID_433_" fill-rule="evenodd" clip-rule="evenodd" fill="#C96E6B" d="M395.2,425.3c-0.2-5.5-10.6,4.5-10,6.4
			C388.5,428.7,390.9,426.5,395.2,425.3z"/>
		<path id="XMLID_432_" fill-rule="evenodd" clip-rule="evenodd" fill="#874410" d="M373.2,432.2c6.9,5.6,2.3,6.7,2.2,6.6
			c-0.4-0.9-4.9-6.6-8.9-6.6c-4,0-4.4,1.6-4.2,4.1c0.1,2.5,7.5,13.5,7.2,13.2c-0.3-0.4-1.3,0.6-2.3-0.1c-0.3,0.4-0.2-0.7-1.1-0.6
			c-0.9,0.1-2-0.4-2.1-1.2l0,0c-1,0-1.8-0.8-1.9-1.9c0-0.1,0-0.2,0-0.4c-0.6-0.3-1.1-0.9-1.1-1.7c0-0.1,0-0.2,0-0.3
			c-0.1,0-0.1,0-0.2,0c-1.5,0.2-2.8-1-3-2.5c-0.1-1,0.3-1.9,1-2.5l-0.1-0.2c-1.6,0.1-2.9-0.8-3-2c-0.1-0.6,0.2-1.2,0.7-1.7
			c-0.9-0.3-1.5-1-1.6-1.8c-0.1-1.1,0.7-2.1,2-2.5c0-0.2,0-0.3,0-0.5c-0.1,0-0.2,0.1-0.4,0.1c-1.1,0.1-2.1-0.8-2.3-2
			c-0.1-0.7,0.1-1.3,0.5-1.7c-0.1-0.8,0.3-1.6,1-2.1c-0.5-0.5-0.8-1.1-0.9-1.8c-0.2-1.6,1.1-3,2.7-3.2c0.5,0,0.9,0,1.3,0.1
			c-0.3-0.4-0.5-0.9-0.6-1.5c-0.2-1.5,0.8-2.9,2.2-3c0.7-0.1,1.3,0.2,1.8,0.6l0,0c-0.4-0.3-0.7-0.8-0.7-1.3c-0.1-1.1,0.8-2,2-2.2
			c0,0,0.1,0,0.1,0l0-0.1c-0.2-1.6,0.8-2.9,2.1-3.1c0.4,0,0.7,0,1.1,0.2c0.5-0.6,1.2-1,2.2-1.1c0.6-0.1,1.3,0,1.8,0.3
			c0-0.1-0.1-0.3-0.1-0.4c-0.2-1.5,1-2.8,2.5-3c0.4,0,0.8,0,1.2,0.1c0-1.2,0.9-2.2,2-2.3c0.9-0.1,1.7,0.4,2.1,1.1
			c0.2-0.1,0.4-0.1,0.7-0.2c1.3-0.1,2.5,0.7,2.9,2c0.1,0,0.3,0,0.4,0c0-1,0.7-1.9,1.6-2c0.7-0.1,1.3,0.3,1.7,0.9
			c0.5-0.5,1.1-0.9,1.9-0.9c1-0.1,2,0.3,2.6,1.1c0.3-0.2,0.7-0.3,1.1-0.3c1.7-0.2,3.2,0.9,3.4,2.5c0.4-0.4,0.9-0.7,1.5-0.8
			c1.6-0.2,3,1.3,3.2,3.4c0.1,1.1-0.2,2.1-0.7,2.8c0.1,0.3,0.2,0.6,0.2,0.9c0.2,2.1-1.1,3.9-3,4.1c-0.6,0.1-1.2-0.1-1.7-0.3
			c-0.4,0.9-1.2,1.6-2.2,1.7c-0.2,0-0.5,0-0.7,0c-0.6,1.3-1.9,2.3-3.6,2.5c-2,0.2-3.9-0.9-4.5-2.5c-0.3,0.2-0.7,0.3-1.1,0.3
			c0,0-0.1,0-0.1,0c0,2-1.4,3.8-3.2,4c-0.6,0.1-1.3-0.1-1.8-0.3c-0.5,0.7-1.5,1.3-2.6,1.4c-0.6,0.1-1.2,0-1.7-0.2
			c-0.3,0.7-0.8,1.2-1.4,1.5c0.2,0.2,0.3,0.5,0.3,0.8c0.1,0.6-0.3,1.3-0.8,1.7c0.1,0.5,0.3,1,0.6,1.6
			C373.2,432.2,373.2,432.2,373.2,432.2z"/>
		<path id="XMLID_431_" fill-rule="evenodd" clip-rule="evenodd" fill="#404041" d="M393.9,426c1.3-0.1,2.6,0.6,3.7,1.9
			c0.2-0.4,0.4-0.7,0.7-1c0.3-0.3,0.7-0.4,1-0.5c0.4-0.1,0.7,0,1.1,0c0.3,0.1,0.5,0.2,0.8,0.3c0.1-1.9,0.5-3.2,1.1-3.3
			c1-0.1,2.1,3,2.5,7c0.4,3.9-0.1,7.2-1,7.3c-1,0.1-2.1-3-2.5-7c-0.1-1-0.2-2-0.1-2.9c-1-0.9-2.2-0.3-2.6,1.2
			c0.6,1.2,1.1,2.7,1.3,4.3c0.5,4.4-1.4,8.2-4.1,8.5c-2.7,0.3-5.3-3.1-5.7-7.5c-0.1-1.3-0.1-2.5,0.2-3.6c-3.6,0.4-24.1,3.2-24.1,3.2
			l-0.1-1.3c0,0,20.9-2.5,24.5-2.9C390.9,427.7,392.2,426.1,393.9,426z"/>
		
			<ellipse id="XMLID_430_" transform="matrix(-0.1019 -0.9948 0.9948 -0.1019 3.3337 871.1503)" fill-rule="evenodd" clip-rule="evenodd" fill="#D4EEF5" cx="394.9" cy="434.1" rx="7.6" ry="4.5"/>
		
			<ellipse id="XMLID_429_" transform="matrix(-0.1019 -0.9948 0.9948 -0.1019 -32.6547 846.6943)" fill-rule="evenodd" clip-rule="evenodd" fill="#FBD2C0" cx="365.9" cy="438.1" rx="6.2" ry="6"/>
		<path id="XMLID_428_" fill-rule="evenodd" clip-rule="evenodd" fill="#F7A183" d="M362.5,435.5c-1.1,1.8-0.8,4,0.6,5.2
			c1.4,1.3,2.9,2.1,4.3,0.8c1.4-1.3,1.4-3,0.2-3.1c-1.1-0.1-2.7-1-2.2-1.7c0.5-0.8,1.3-0.3,1.5-1.1c0.2-0.8-1.2-1.6-1.2-1.6
			C365.9,434.1,363.7,433.5,362.5,435.5z"/>
		<path id="XMLID_427_" fill-rule="evenodd" clip-rule="evenodd" fill="#F8A98E" d="M367.3,441.6L367.3,441.6
			c1.5-1.4,1.4-3.1,0.3-3.2c-1.1-0.1-2.7-1-2.2-1.7c0.2-0.4,0.5-0.4,0.8-0.5c0.2-0.3,0.4-0.4,0.7-0.4c0,0,0-0.1,0-0.2
			c0.2-0.8-1.2-1.6-1.2-1.6c0.1,0-0.9-0.2-1.9,0.2c-0.2,0.2-0.5,0.5-0.7,0.8c-1.1,1.8-0.8,4,0.6,5.2
			C365,441.3,366.2,442,367.3,441.6z"/>
		
			<ellipse id="XMLID_426_" transform="matrix(-0.1019 -0.9948 0.9948 -0.1019 15.6693 875.9918)" fill-rule="evenodd" clip-rule="evenodd" fill="#D4EEF5" cx="403.2" cy="430.9" rx="6.7" ry="1.4"/>
		<path id="XMLID_425_" fill-rule="evenodd" clip-rule="evenodd" fill="#FBD2C0" d="M399.8,430.1c0,0,7,4.3,6.8,5.5
			c-0.2,1.2-6.6,4.3-6.6,4.3L399.8,430.1z"/>
		<path id="XMLID_424_" fill-rule="evenodd" clip-rule="evenodd" fill="#F4F7F9" d="M393.8,441.2c0-4.1,1.7-8,4.8-10.8
			c-1-2.5-2.7-4.1-4.4-3.9c-2.5,0.3-4.1,3.8-3.7,8C390.8,437.6,392.1,440.1,393.8,441.2z"/>
		<path id="XMLID_423_" fill-rule="evenodd" clip-rule="evenodd" fill="#F4F7F9" d="M402.1,424.8c-0.3,0.7-0.4,1.9-0.4,3.4
			c0.4-0.2,0.8-0.4,1.2-0.6c0.4-0.2,0.7-0.3,1.1-0.4c-0.4-1.8-1-3-1.5-3C402.4,424.2,402.2,424.4,402.1,424.8z"/>
		<polygon id="XMLID_422_" fill-rule="evenodd" clip-rule="evenodd" fill="#404041" points="394.3,457.7 392.3,458.2 389.6,459.2 
			387.7,462.2 391.7,464.7 394.9,463.7 395.6,459.8 		"/>
		<path id="XMLID_421_" fill-rule="evenodd" clip-rule="evenodd" fill="#FBD2C0" d="M540.4,488.6c3.8,0,6.9-3,6.9-6.7
			c0-3.7-3.1-6.7-6.9-6.7c-3.8,0-6.9,3-6.9,6.7C533.4,485.6,536.6,488.6,540.4,488.6z"/>
		<path id="XMLID_420_" fill-rule="evenodd" clip-rule="evenodd" fill="#404041" d="M504.3,454.6c0.1,0.1,10.1,18.4,22,25.4
			c10.6,6.2,12.2,1.6,13.7,0.8c6.1-3.2,14.4,5.1,9.3,9.4c-0.1,0-15.4,7.7-30-0.9c-13.3-7.8-28-22.4-28-22.4
			C485.3,460.4,499,449.8,504.3,454.6z"/>
		<path id="XMLID_419_" fill-rule="evenodd" clip-rule="evenodd" fill="#404041" d="M624,402.7c-0.1,0-8.4,31.5-24.3,30.3
			c-14.1-1-33.1-15.3-33.1-15.3l-9.4,11.4c-0.1,2.3,0.6,2.3,2.5,3.4c5.8,3.1,26,13.4,42.7,14.6c17.8,1.3,32.5-31.4,32.6-31.4
			C644.5,413.7,632,401.8,624,402.7z"/>
		<path id="XMLID_418_" fill-rule="evenodd" clip-rule="evenodd" fill="#404041" d="M640.8,486.3c0,0-14.9,7.6-21.6,5.1
			c-6.7-2.5,0.7-41.1,0.2-48.7c-0.6-8.5-0.9-37.2,6.5-42.1c3.6-2.4,14.8-2.9,14.8-2.9C646,428.9,635.3,460,640.8,486.3z"/>
		<path id="XMLID_417_" fill-rule="evenodd" clip-rule="evenodd" fill="#3C3D3E" d="M659.2,476.6c2.1,4.9,4.6,14.1,2.1,19.6
			c-4.1,9,2.7,100.6,4.4,107.5c-5.3,0.1-14.4-1.7-20.9-1.5c2.7-16.6-0.8-93.9-4.7-94.9c-8.5-2.2-0.1,85,1.9,95
			c-14.9,0.7-12,3.9-20-0.9c-0.7-18.8-6.3-108.8-2.1-123.5C620.4,475.8,652.2,475,659.2,476.6z"/>
		<path id="XMLID_416_" fill-rule="evenodd" clip-rule="evenodd" fill="#FFFFFF" d="M628.9,401.8c0.9-0.7,5.7-5.6,13.4-3.9
			c7.7,1.7,9.4,0.9,11.7,3.1c2.3,2.2,6.8,35.5,1.9,52.6c-4.9,17.1,2.8,22.7-0.1,25.5c-2.9,2.7-24.8,4.5-32.2,1.4
			C613.7,476.3,629.7,403.4,628.9,401.8z"/>
		<path id="XMLID_415_" fill-rule="evenodd" clip-rule="evenodd" fill="#FFFFFF" d="M643.6,391c0.7,1.3,1.6,2.7,1.2,3l-17.3,13.5
			l2.5-6.7L643.6,391z"/>
		<path id="XMLID_414_" fill-rule="evenodd" clip-rule="evenodd" fill="#58595B" d="M630.1,406.6c-1.2,17.7-5.6,38.8-8.2,56.5
			c1.2,6,3,11.9,3,11.9l7.8-8.8l1.5-57.8c0.9-0.6,1.8-3.1,1.8-3.4c0-0.3,0.1-3.9,0.1-3.9l-5-0.2l-1,3.4L630.1,406.6z"/>
		<path id="XMLID_413_" fill-rule="evenodd" clip-rule="evenodd" fill="#FBD2C0" d="M626.2,345.5c-11.5,1.9-15.5,16.4-10.4,25.8
			c1.6,2.9-2.3,9.8-2.4,11.4c-0.2,2.4,2.3,2.6,6.2,2.4c0.9,4.1,3.7,8.2,6.5,11.6c1.8,2.2,7.3,0.6,10.9,0c0.8,4,0.5,8.5,0.5,8.5
			l14.9-6.3c-6.6-18.6,7.4-17.9,1.6-37.3C649.4,346.3,637.7,343.6,626.2,345.5z"/>
		<path id="XMLID_412_" fill-rule="evenodd" clip-rule="evenodd" fill="#A55033" d="M644.2,363.3c0.8,2.7-0.3,5-0.3,5
			c2.9,2.7,4.7,7.5,5.8,10.7c-0.1,1.3-0.2,2.6-0.4,3.3c-0.3,1.3-1.2,3-0.6,2.6c0.6-0.4,2.2-2,2.2-1.9c0,0.2-0.9,5.8-0.6,5.3
			c0.3-0.5,1.1-0.9,1.8-2.4c0.7-1.4,0.8-1.6,0.8-1.6l-0.4,3.5c6.9-6,7.1-31.8,0.2-39.3c0.9-13.5-43.9-9.5-44.4,7.6
			c-0.1,5.1,3.7,9.7,3.2,8.8c-0.4-0.9-0.5-2.7,0.4-5.9c0.5,4.3,4,6.1,7.9,6.4c-0.5-0.7-3.9-5.9-3.9-5.9c3.9,3.2,6.3,4.3,12.7,4
			c-0.8-0.7-3.8-4.6-3.8-4.6c3.9,3.1,11.6,4.5,11.3,4.1c-1.2-1.7-1.2-4-1-5.3c1.4,1.1,3.7,3.3,4.7,7c0.9,3.2-0.2,5.9-0.4,9.5
			c-0.2,2.5,2.1,6.6,2.1,6.6l0.9-4.4c0,0-0.3-3.3,0.1-8.1C642.8,365.3,643.3,364.1,644.2,363.3z"/>
		
			<ellipse id="XMLID_411_" transform="matrix(0.1632 -0.9866 0.9866 0.1632 178.5388 948.033)" fill-rule="evenodd" clip-rule="evenodd" fill="#FBD2C0" cx="648.1" cy="368.8" rx="7.6" ry="6.2"/>
		<path id="XMLID_410_" fill-rule="evenodd" clip-rule="evenodd" fill="#F8A98E" d="M646.5,363.5c3.8-2.2,6.3,3.2,4.7,7.3
			c-0.8,1.9-2.2,3.5-3.3,3.9c-1.1,0.4-2.6,0.2-2.9-1.3c-0.3-1.5,1.1-1.9,1.5-3.2c0.4-1.4,0.2-1.8-0.8-2.6c-1-0.8-1.1-1-0.7-2.2
			C645.5,364.1,646.5,363.5,646.5,363.5z"/>
		<path id="XMLID_409_" fill-rule="evenodd" clip-rule="evenodd" fill="#404041" d="M670.1,487.5c0,0-19.1,7.1-25.8,4.6
			c-6.7-2.5-6.5-41.9-7.1-49.4c-0.6-8.5-0.3-42.9,3.7-43.5c3.6-0.6,15.9-4.2,15.9-4.2c8.2,2.4,5.3,26.3,6.8,51.5
			C664.6,461.6,667.9,477.5,670.1,487.5z"/>
		<path id="XMLID_408_" fill-rule="evenodd" clip-rule="evenodd" fill="#404041" d="M649.5,404.2c0,0.1,14.8,25.7,15.6,40.8
			c-10.7,6.1-34.6,6.7-34.6,6.7c-0.2,3.2-3.3,14.4,3.5,13.2c12.9-2.3,33.8-1.4,43.6-9c8.1-6.2-7.7-43.3-11.1-52.5
			C664.5,394,648.6,396.2,649.5,404.2z"/>
		<path id="XMLID_407_" fill-rule="evenodd" clip-rule="evenodd" fill="#FFFFFF" d="M652.4,390c0.7,1.3,2.9,5.3,2.9,5.3
			s-16.6,13.3-16.1,13.4c0.5,0.1-4.5-7.6-4.5-7.6L652.4,390z"/>
		<g id="XMLID_403_">
			<polygon id="XMLID_406_" fill-rule="evenodd" clip-rule="evenodd" fill="#5D8584" points="612.9,434.8 573.6,407.6 577.9,430.1 
							"/>
			<path id="XMLID_405_" fill-rule="evenodd" clip-rule="evenodd" fill="#E6E7E8" d="M581.3,430.6l-3.9-18.1l27.1,21.2l4.9,21.4
				C600.1,445.9,591.7,438.8,581.3,430.6z"/>
			<polygon id="XMLID_404_" fill-rule="evenodd" clip-rule="evenodd" fill="#638F8E" points="603.8,416.9 577.9,430.1 611,460.9 
				636.9,447.6 			"/>
		</g>
		<path id="XMLID_402_" fill-rule="evenodd" clip-rule="evenodd" fill="#FFFFFF" d="M630.3,453.1c0.5-0.3,1.7-1.7,2.3-0.8
			c2,2.7,0.6,12.7-0.4,12C631.5,463.8,630.3,453.1,630.3,453.1z"/>
		<path id="XMLID_401_" fill-rule="evenodd" clip-rule="evenodd" fill="#FBD2C0" d="M631.9,451.2c-1.2-1.3-3.9-3.3-7.3-4.8
			c-4.7-2.1-9.6-3.7-10.5-3.2c-0.9,0.5-1.2,1.5-0.5,2.1c0.7,0.7,7,2.9,7.1,3.7c0,0.8-7.5-2-8.2-2c-0.7,0-1,0-1.4,1
			c-0.4,1,0.4,1,1.1,1.6c0.8,0.6,7.6,2.2,7.3,3.3c-0.3,1.1-7.2-1.8-8.4-1.8c-1.2-0.1-1.7,1.2-0.7,1.9c1,0.7,7.9,2.5,7.7,3
			c-0.2,0.5-5.6-1-5.9-0.1c-0.7,2.3,6.1,2.8,7.2,3c2.2,0.5,4.2,1.9,6.8,1.6c1.6-0.2,3.2-0.8,4.4-1.8l0,0c0.6,0.1,1.3,0.3,1.9,0.4
			c0.4,0.1,0.8,0.2,1.1,0.2c0.2-2.7,0.2-5.8-0.4-7.9l-0.7-0.2L631.9,451.2z"/>
		<path id="XMLID_400_" fill-rule="evenodd" clip-rule="evenodd" fill="#FFFFFF" d="M565.1,419c0.7,0.1,2.9-0.3,2.8,1.1
			c-0.3,4.1-9.7,12.3-10.1,10.8C557.6,429.9,565.1,419,565.1,419z"/>
		<path id="XMLID_399_" fill-rule="evenodd" clip-rule="evenodd" fill="#FBD2C0" d="M567.2,422c-0.5-1.1-2.4-5.9-4.3-7
			c-1.9-1.1-6.5-4.8-7.5-4.3c-1,0.5,0.1,2,0.5,2.8c0.3,0.8,1.7,2.3,1.7,2.3l-6-1.9c0,0-5.1-1.5-6.1-2c-1-0.5-1.8-0.8-2.2-0.9
			c-0.3-0.1-0.4,0.1-1,1c-0.6,1,0.2,1.4,0.2,1.4s-1-0.7-1.6-0.2c-0.6,0.5-0.9,0.7-0.7,1.4c0.1,0.7,1.8,1.3,1.8,1.3s-1.1-0.6-1.4,0
			c-0.3,0.6-0.3,0.9-0.1,1.4c0.3,0.6,2.7,1.5,2.7,1.5s-1.2-0.3-1.2,0.3c-0.1,0.6-0.5,0.6,0.2,1.2c0.7,0.6,4.1,2,5.5,2.5
			c1.4,0.5,4.2,1.5,5.7,2.3c1.5,0.8,7.2,1.6,10.1,0.9C566.4,425.5,567.2,422,567.2,422z"/>
		<g id="XMLID_386_">
			<path id="XMLID_398_" fill-rule="evenodd" clip-rule="evenodd" fill="#43525A" d="M746.1,545c-11.7-5.6-19.9-7-34.7-7
				c-14.8,0-30.5,4.1-43.3,11.2l0,0c0,2.2,1.2,4,2.6,4h80.6l0,0l0,0c2.1,0.3,4.2-1.2,4.5-3.3l15.7-101.3c0.3-2.1-1.1-4.5-3.3-4.5
				C749.4,444.1,743.6,529.5,746.1,545z"/>
			<g id="XMLID_387_">
				<path id="XMLID_397_" fill-rule="evenodd" clip-rule="evenodd" fill="#404041" d="M728.6,562.4c-0.5,0.9-0.2,2.1,0.7,2.8
					l3.8,2.8c1,0.7,2.4,0.5,3.1-0.4l0,0c0.7-1,0.5-2.4-0.4-3.1l-3.8-2.8c-0.9-0.7-2.1-0.6-2.8,0.1l-2.6-1.8l-0.3-3.5l-0.8,0.1
					l0.3,3.7l0,0.2l0.2,0.1L728.6,562.4z"/>
				<rect id="XMLID_396_" x="708.5" y="554.8" fill-rule="evenodd" clip-rule="evenodd" fill="#808184" width="6.3" height="25.4"/>
				<rect id="XMLID_395_" x="708.5" y="554.8" fill-rule="evenodd" clip-rule="evenodd" fill="#8D8D8D" width="3.1" height="25.4"/>
				<path id="XMLID_394_" fill-rule="evenodd" clip-rule="evenodd" fill="#404041" d="M669.9,552.7c0,0.1,0,0.3,0,0.4l0,0
					c0,2.4,1.9,4.3,4.3,4.3h16c1.8,1.5,10.8,2.7,21.6,2.7c10.8,0,19.7-1.2,21.6-2.7h16c2.4,0,4.3-1.9,4.3-4.3l0,0c0-0.1,0-0.3,0-0.4
					H669.9z"/>
				<g id="XMLID_388_">
					<path id="XMLID_393_" fill-rule="evenodd" clip-rule="evenodd" fill="#404041" d="M716.6,575.6h-9.9v22.4l-22.9,3.9
						c-1.6,0.3-2.9,1.3-2.9,2.9v0c0,1.6,1.3,3.1,2.9,2.9l25-4.3h5.7l25,4.3c1.6,0.3,2.9-1.3,2.9-2.9v0c0-1.6-1.3-2.6-2.9-2.9
						l-22.9-3.9V575.6z"/>
					<path id="XMLID_392_" fill-rule="evenodd" clip-rule="evenodd" fill="#6D6E70" d="M739.9,611.6c2.1,0,3.8-1.7,3.8-3.8
						s-1.7-3.8-3.8-3.8c-2.1,0-3.8,1.7-3.8,3.8S737.7,611.6,739.9,611.6z"/>
					<path id="XMLID_391_" fill-rule="evenodd" clip-rule="evenodd" fill="#6D6E70" d="M683.8,611.6c2.1,0,3.8-1.7,3.8-3.8
						s-1.7-3.8-3.8-3.8c-2.1,0-3.8,1.7-3.8,3.8S681.7,611.6,683.8,611.6z"/>
					<polygon id="XMLID_390_" fill-rule="evenodd" clip-rule="evenodd" fill="#404041" points="715.1,597.9 711.7,597.9 
						708.2,597.9 709.5,608.1 711.7,608.1 713.8,608.1 					"/>
					<path id="XMLID_389_" fill-rule="evenodd" clip-rule="evenodd" fill="#6D6E70" d="M711.8,611.6c2.1,0,3.8-1.7,3.8-3.8
						s-1.7-3.8-3.8-3.8c-2.1,0-3.8,1.7-3.8,3.8S709.7,611.6,711.8,611.6z"/>
				</g>
			</g>
		</g>
		<path id="XMLID_385_" fill-rule="evenodd" clip-rule="evenodd" fill="#A15641" d="M621.4,372.4c0.9,0,1.9,0.9,2.2,2
			c0.3,1.1-0.1,2-1,2c-0.9,0-1.9-0.9-2.2-2C620.1,373.3,620.5,372.4,621.4,372.4z"/>
		<path id="XMLID_384_" fill-rule="evenodd" clip-rule="evenodd" fill="#74584B" d="M504.4,422.8c0.7,0.5,1.1,1.8,0.7,2.9
			c-0.3,1.1-1.2,1.6-2,1.2c-0.7-0.5-1.1-1.8-0.7-2.9C502.7,422.8,503.6,422.3,504.4,422.8z"/>
		<path id="XMLID_383_" fill-rule="evenodd" clip-rule="evenodd" fill="#C96E6B" d="M399.4,424.3c-1.3-3.5,2.9-3.1,2.3-0.5
			C400.2,423.9,400.1,424.2,399.4,424.3z"/>
		<path id="XMLID_382_" fill-rule="evenodd" clip-rule="evenodd" fill="#A15641" d="M617.9,371c-3.5-3.6,9.5-4.2,10.4-2.6
			C624.3,368.7,621.4,368.9,617.9,371z"/>
	</g>
	<circle fill="#FFFFFF" cx="231.4" cy="146.5" r="26.2"/>
	<g>
		<g>
			<g>
				<g>
					<polygon fill="#4C9BB9" points="235.6,132.7 227.2,132.7 227.2,145.1 221.5,145.1 231.5,155.2 241.4,145.1 235.6,145.1 					
						"/>
				</g>
			</g>
			<g>
				<rect x="220.2" y="158" fill="#4C9BB9" width="22.3" height="2.3"/>
				<rect x="220.2" y="156.3" fill="#4C9BB9" width="1.8" height="4"/>
				<rect x="240.8" y="156.3" fill="#4C9BB9" width="1.8" height="4"/>
			</g>
		</g>
	</g>
	<circle fill="#FFFFFF" cx="262" cy="334.3" r="27.6"/>
	<g>
		<g>
			<path fill="#4C9BB9" d="M273.1,348.4L273.1,348.4l-1.3-3.4l2.3-2.7l3.5,0.7l0,0.1c0.7-1.2,1.2-2.5,1.6-3.8l0,0l-2.9-2l0.3-3.6
				l3.2-1.5l0,0c-0.1-1.3-0.5-2.6-0.9-3.9l0,0.1l-3.6,0.1l-1.8-3l1.7-3.1h0.1c-1-1-2-2-3.1-2.7v0.1l-2.9,2.1l-3.3-1.4l-0.4-3.5l0,0
				c-1.3-0.3-2.7-0.4-4.1-0.4l0,0l-1,3.4l-3.5,0.8l-2.5-2.6l0-0.1c-0.6,0.3-1.3,0.6-1.9,1c-0.6,0.3-1.1,0.7-1.6,1.1l0.1,0l1.2,3.4
				l-2.3,2.7l-3.5-0.6l0-0.1c-0.7,1.2-1.2,2.5-1.6,3.8l0.1,0l2.9,2l-0.3,3.6l-3.2,1.5l-0.1,0c0.2,1.4,0.5,2.7,0.9,4l0-0.1l3.6-0.1
				l1.8,3.1l-1.7,3.1h-0.1c0.9,1,2,2,3.1,2.7l0-0.1l2.8-2.2l3.3,1.4l0.4,3.6l0,0c1.4,0.3,2.7,0.4,4.1,0.4l0-0.1l1-3.4l3.5-0.8
				l2.5,2.6l0,0.1c0.6-0.3,1.2-0.6,1.9-1C272,349.2,272.5,348.8,273.1,348.4z M253,339.7c-3.1-5-1.5-11.5,3.5-14.6
				c5-3,11.6-1.4,14.6,3.5c3,5,1.5,11.5-3.5,14.6C262.6,346.3,256,344.7,253,339.7z"/>
			<path fill="#4C9BB9" d="M268.1,334.2c0,3.3-2.7,6.1-6.1,6.1c-3.3,0-6.1-2.7-6.1-6.1c0-3.3,2.7-6,6.1-6
				C265.4,328.2,268.1,330.9,268.1,334.2z"/>
		</g>
	</g>
	<circle fill="#FFFFFF" cx="552.5" cy="331" r="26.2"/>
	<path fill="#4C9BB9" d="M567.3,320.3h-29.7c-0.8,0-1.4,0.7-1.4,1.5v18.2c0,0.8,0.6,1.5,1.4,1.5h29.7c0.8,0,1.4-0.7,1.4-1.5v-18.2
		C568.7,321,568.1,320.3,567.3,320.3z M552.5,332.6c0,0-14.4-10.7-15.5-11.6c1.2,0.7,15.5,9.1,15.5,9.1s14-8.3,15.2-9
		C566.6,322,552.5,332.6,552.5,332.6z"/>
	<g>
		<path fill="#FFFFFF" d="M621.6,122.9c2.5-2.5,6.3-2.8,9.2-1.1c-1,1-2.1,2.1-2.1,2.1c-0.8,0.9,0.1,1.5,0.5,1.5l5.3,0
			c0.3,0,0.5,0,0.5,0h0.5h1c0.3,0,0.5-0.2,0.5-0.5v-7.2c0-0.7-0.7-1.3-1.4-0.6c0,0-1.2,1.2-2.1,2.1c-4.4-3.2-10.5-2.8-14.5,1.1
			c-2.3,2.3-3.4,5.4-3.3,8.4h3.7C619.3,126.6,620,124.5,621.6,122.9"/>
		<path fill="#FFFFFF" d="M634,127.4c0.1,2.1-0.6,4.2-2.2,5.7c-2.5,2.5-6.3,2.8-9.2,1.1c1-1,2.1-2.1,2.1-2.1
			c0.8-0.9-0.1-1.5-0.5-1.5l-5.2,0c-0.3,0-0.5,0-0.5,0H618h-1c-0.3,0-0.5,0.2-0.5,0.5v7.2c0,0.7,0.7,1.3,1.4,0.6
			c0,0,1.2-1.2,2.1-2.1c4.4,3.2,10.5,2.8,14.5-1.1c2.3-2.3,3.4-5.4,3.3-8.4L634,127.4L634,127.4z"/>
	</g>
	<g>
		<path fill="#FFFFFF" d="M603.9,283.6c1.6-0.6,3.3,0.3,3.9,1.9c0.6,1.6-0.3,3.3-1.9,3.9c-1.6,0.6-3.3-0.3-3.9-1.9
			C601.4,285.9,602.3,284.1,603.9,283.6"/>
		<path fill="#FFFFFF" d="M609.4,277.1c-0.1,0-0.1-0.1-0.2-0.1l-0.2-0.1c0,0-0.1,0-0.1,0c-4.9-2.1-10.6,0-12.9,4.8l-0.3,0.6
			l-0.4,0.8c-0.5,1-0.1,2.1,0.9,2.6c1,0.5,2.1,0.1,2.6-0.9l0.7-1.3c1.5-3.1,5.2-4.3,8.2-2.9l1,0.4c0.9,0.5,2.1,0.1,2.5-0.9
			c0.2-0.5,0.3-1,0.1-1.5c-0.2-0.5-0.5-0.9-1-1.1L609.4,277.1z"/>
		<path fill="#FFFFFF" d="M613.1,271.8l-0.8-0.4c0,0,0,0,0,0l-0.6-0.3c-0.1-0.1-0.2-0.1-0.3-0.1c-8-3.2-17.2,0.1-21.1,7.9
			c0,0,0,0.1-0.1,0.1l-0.7,1.5c-0.4,0.9-0.1,1.9,0.8,2.3c0.9,0.4,1.9,0.1,2.3-0.8l0.7-1.5c0,0,0,0,0,0c3.2-6.3,10.8-8.9,17.2-6
			l1.2,0.6c0.9,0.4,1.9,0.1,2.3-0.8C614.3,273.3,614,272.2,613.1,271.8"/>
	</g>
	<g>
		<path fill="#FFFFFF" d="M408.1,105.6l-1.2,1.3l2.7,2.6l1.2-1.3c1.2,0.8,2.5,1.3,3.9,1.6l0,1.8l3.7-0.1l0-1.8
			c1.4-0.3,2.7-0.9,3.9-1.7l1.3,1.2l2.6-2.7l-1.3-1.2c0.8-1.2,1.3-2.5,1.6-3.9l1.8,0l-0.1-3.7l-1.8,0c-0.3-1.4-0.9-2.7-1.7-3.9
			l1.2-1.3l-2.7-2.6l-1.2,1.3c-1.2-0.8-2.5-1.3-3.9-1.6l0-1.8l-3.7,0.1l0,1.8c-1.4,0.3-2.7,0.9-3.9,1.7l-1.3-1.2l-2.6,2.7l1.3,1.2
			c-0.8,1.2-1.3,2.5-1.6,3.9l-1.8,0l0.1,3.7l1.8,0C406.8,103.2,407.3,104.5,408.1,105.6 M416.3,92.2c4.1-0.1,7.5,3.2,7.6,7.4
			c0.1,4.1-3.2,7.5-7.4,7.6c-4.1,0.1-7.5-3.2-7.6-7.4C408.9,95.7,412.2,92.3,416.3,92.2"/>
		<path fill="#FFFFFF" d="M437.3,83.7l1.1-0.5l-1.2-2.7L436,81c-0.5-0.7-1.1-1.2-1.8-1.7l0.4-1.1l-2.8-1.1l-0.4,1.1
			c-0.8-0.1-1.6-0.1-2.4,0.1l-0.5-1.1l-2.7,1.2l0.5,1.1c-0.7,0.5-1.2,1.1-1.7,1.8l-1.1-0.4l-1.1,2.8l1.1,0.4
			c-0.1,0.8-0.1,1.6,0.1,2.4l-1.1,0.5l1.2,2.7l1.1-0.5c0.5,0.7,1.1,1.2,1.8,1.7l-0.4,1.1l2.8,1.1l0.4-1.1c0.8,0.1,1.6,0.1,2.4-0.1
			l0.5,1.1l2.7-1.2l-0.5-1.1c0.7-0.5,1.2-1.1,1.7-1.8l1.1,0.4l1.1-2.8l-1.1-0.4C437.4,85.3,437.4,84.5,437.3,83.7 M432.3,89.3
			c-0.6,0.3-1.2,0.4-1.8,0.4c-1.9,0-3.6-1.1-4.3-2.8c-1-2.3,0-5.1,2.4-6.1c0.6-0.3,1.2-0.4,1.8-0.4c1.9,0,3.6,1.1,4.3,2.8
			C435.7,85.6,434.7,88.3,432.3,89.3"/>
	</g>
	<path fill="#FFFFFF" d="M81.2,94H61c-1.7,0-3.1,1.4-3.1,3.1V108c0,1.7,1.4,3.1,3.1,3.1h1.6v5.4c0,0.2,0.1,0.4,0.2,0.6
		c0.3,0.3,0.8,0.3,1.1,0l6.4-6h10.9c1.7,0,3.1-1.4,3.1-3.1V97.1C84.3,95.4,82.9,94,81.2,94 M63.3,98.6h12.4c0.4,0,0.8,0.3,0.8,0.8
		c0,0.4-0.3,0.8-0.8,0.8H63.3c-0.4,0-0.8-0.3-0.8-0.8C62.5,99,62.9,98.6,63.3,98.6 M69.5,106.4h-6.2c-0.4,0-0.8-0.3-0.8-0.8
		c0-0.4,0.3-0.8,0.8-0.8h6.2c0.4,0,0.8,0.3,0.8,0.8C70.3,106.1,69.9,106.4,69.5,106.4 M78.8,103.3H63.3c-0.4,0-0.8-0.3-0.8-0.8
		c0-0.4,0.3-0.8,0.8-0.8h15.5c0.4,0,0.8,0.3,0.8,0.8C79.6,102.9,79.3,103.3,78.8,103.3"/>
	<circle fill="#FFFFFF" cx="648.4" cy="225.2" r="27.7"/>
	<g>
		<g>
			<polygon fill="#4C9BB9" points="648.1,236.2 648.4,232.5 640.1,232.5 640.4,236.2 			"/>
			<polygon fill="#4C9BB9" points="649.6,231.4 657.2,231.4 658.8,225.2 650.1,225.2 			"/>
			<polygon fill="#4C9BB9" points="631.6,232.5 632.6,236.2 639.2,236.2 638.9,232.5 			"/>
			<polygon fill="#4C9BB9" points="656.9,232.5 649.6,232.5 649.3,236.2 655.9,236.2 			"/>
			<path fill="#4C9BB9" d="M662.8,214.2c-0.4,0-0.7,0.1-1,0.3c-0.1,0.1-0.3,0.2-0.4,0.3c-1.6,1.6-3.2,3.2-4.7,4.7
				c-0.2,0.2-0.3,0.3-0.4,0.6h-5.8l-0.3,3.9h8.8l0.7-2.5c1.3-1.3,2.5-2.6,3.8-3.7h3c2.3,0,2.3-3.7,0-3.7H662.8z"/>
			<polygon fill="#4C9BB9" points="639.4,224.1 649.1,224.1 649.4,220.2 639.1,220.2 			"/>
			<polygon fill="#4C9BB9" points="638.9,231.4 638.4,225.2 629.7,225.2 631.3,231.4 			"/>
			<polygon fill="#4C9BB9" points="628.4,220.2 629.4,224.1 638.3,224.1 637.9,220.2 			"/>
			<polygon fill="#4C9BB9" points="649,225.2 639.5,225.2 640,231.4 648.5,231.4 			"/>
			<path fill="#4C9BB9" d="M636.1,237.2c1.7,0,3.1,1.4,3.1,3.1c0,1.7-1.4,3.1-3.1,3.1c-1.7,0-3.1-1.4-3.1-3.1
				C633,238.6,634.4,237.2,636.1,237.2"/>
			<path fill="#4C9BB9" d="M652.4,237.2c1.7,0,3.1,1.4,3.1,3.1c0,1.7-1.4,3.1-3.1,3.1c-1.7,0-3.1-1.4-3.1-3.1
				C649.3,238.6,650.7,237.2,652.4,237.2"/>
		</g>
	</g>
	<circle fill="#FFFFFF" cx="107.6" cy="248.4" r="26.2"/>
	<path fill="#4C9BB9" d="M113.8,248.9l1.3-6.3l0.2-1l-1.1,0c-0.6,0-1.1,0-1.6,0c-5.9,0-8.2,1.1-9.8,2.8c-1.8,1.9-3,4.8-3,7.2
		c0,2.7,2.3,4.6,5.5,4.6c2.1,0,3.3-0.6,4.7-1.5c1.2,1,2.2,1.5,4.3,1.5c2.8,0,5.2-1.3,6.8-3.7c1.2-1.8,1.9-4.3,1.9-6.7
		c0-5-2.7-8-4.9-9.6c-2.5-1.8-5.9-2.9-9.1-2.9c-6.4,0-10.3,3.1-12.5,5.8c-2.6,3.2-4.1,7.5-4.1,11.7c0,4.1,1.6,7.5,4.6,9.8
		c2.5,2,6,3,9.6,3c4.5,0,9-1.1,13-3.3l0.7-0.4l-0.4-0.8l-1.2-2.6l-0.4-0.8l-0.8,0.4c-3.1,1.6-6.5,3.1-10.7,3.1
		c-2.8,0-5.1-0.8-6.7-2.2c-1.6-1.5-2.4-3.6-2.4-6.1c0-8.6,5.5-13.2,10.9-13.2c2.7,0,4.9,0.8,6.5,2.3c1.6,1.5,2.4,3.6,2.4,6
		c0,0.9-0.2,2.5-0.8,3.7c-0.6,1.4-1.4,2-2.5,2c-0.6,0-0.8-0.2-0.8-0.8c0-0.4,0.2-1.2,0.3-1.7C113.7,249.1,113.8,249,113.8,248.9
		 M109.1,246.1c-1.1,4.6-2.5,5.6-3.5,5.6c-0.1,0-0.4,0-0.4-0.4c0-1.3,0.9-3.3,2-4.4C107.6,246.4,108.3,246.2,109.1,246.1"/>
	<g>
		<polygon fill="#FFFFFF" points="454.5,275.6 457.9,275.6 457.9,277 467.3,280.9 467.3,271.7 467.3,262.5 457.9,266.4 457.9,267.9 
			454.5,267.9 		"/>
		<path fill="#FFFFFF" d="M469.3,266.5c0.8,1.4,1.2,3.3,1.2,5.2c0,1.9-0.4,3.7-1.2,5.2l1.5,0.8c0.9-1.7,1.4-3.8,1.4-6
			c0-2.2-0.5-4.3-1.4-6L469.3,266.5z"/>
		<path fill="#FFFFFF" d="M473.8,271.7c0,2.6-0.6,5.2-1.7,7.2l1.5,0.8c1.2-2.3,1.9-5.1,1.9-8c0-2.9-0.7-5.8-1.9-8l-1.5,0.8
			C473.2,266.5,473.8,269.1,473.8,271.7"/>
	</g>
	<path fill="#FFFFFF" d="M167.1,283.6c1.3,0.8,2.3,2.3,2.5,3.9c0.5,0.3,1.2,0.4,1.8,0.4c2.4,0,4.3-1.9,4.3-4.3
		c0-2.4-1.9-4.3-4.3-4.3C169.1,279.4,167.2,281.3,167.1,283.6 M164.3,292.3c2.4,0,4.3-1.9,4.3-4.3c0-2.4-1.9-4.3-4.3-4.3
		c-2.4,0-4.3,1.9-4.3,4.3C160.1,290.4,162,292.3,164.3,292.3 M166.1,292.6h-3.6c-3,0-5.5,2.5-5.5,5.5v4.4l0,0.1l0.3,0.1
		c2.9,0.9,5.4,1.2,7.4,1.2c4,0,6.4-1.1,6.5-1.2l0.3-0.1h0v-4.4C171.6,295.1,169.2,292.6,166.1,292.6 M173.2,288.2h-3.6
		c0,1.4-0.7,2.7-1.6,3.7c2.7,0.8,4.6,3.3,4.6,6.2v1.4c3.6-0.1,5.6-1.1,5.7-1.2l0.3-0.1h0v-4.4C178.7,290.7,176.2,288.2,173.2,288.2
		 M156.8,287.9c0.8,0,1.6-0.2,2.3-0.7c0.2-1.4,0.9-2.6,2-3.4c0-0.1,0-0.2,0-0.2c0-2.4-1.9-4.3-4.3-4.3c-2.4,0-4.3,1.9-4.3,4.3
		C152.6,286,154.5,287.9,156.8,287.9 M160.7,291.9c-1-0.9-1.6-2.2-1.6-3.6c-0.1,0-0.3,0-0.4,0H155c-3,0-5.5,2.5-5.5,5.5v4.4l0,0.1
		l0.3,0.1c2.3,0.7,4.4,1.1,6.2,1.2v-1.3C156,295.2,158,292.7,160.7,291.9"/>
	<path fill="#FFFFFF" d="M717.6,153.3c1.3,0.8,2.3,2.3,2.5,3.9c0.5,0.3,1.2,0.4,1.8,0.4c2.4,0,4.3-1.9,4.3-4.3
		c0-2.4-1.9-4.3-4.3-4.3C719.5,149,717.6,150.9,717.6,153.3 M714.8,162c2.4,0,4.3-1.9,4.3-4.3s-1.9-4.3-4.3-4.3
		c-2.4,0-4.3,1.9-4.3,4.3C710.5,160.1,712.4,162,714.8,162 M716.6,162.3H713c-3,0-5.5,2.5-5.5,5.5v4.4l0,0.1l0.3,0.1
		c2.9,0.9,5.4,1.2,7.4,1.2c4,0,6.4-1.1,6.5-1.2l0.3-0.1h0v-4.4C722.1,164.7,719.6,162.3,716.6,162.3 M723.7,157.9h-3.6
		c0,1.4-0.7,2.7-1.6,3.7c2.7,0.8,4.6,3.3,4.6,6.2v1.4c3.6-0.1,5.6-1.1,5.7-1.2l0.3-0.1h0v-4.4C729.1,160.3,726.7,157.9,723.7,157.9
		 M707.3,157.6c0.8,0,1.6-0.2,2.3-0.7c0.2-1.4,0.9-2.6,2-3.4c0-0.1,0-0.2,0-0.2c0-2.4-1.9-4.3-4.3-4.3c-2.4,0-4.3,1.9-4.3,4.3
		C703,155.7,704.9,157.6,707.3,157.6 M711.1,161.5c-1-0.9-1.6-2.2-1.6-3.6c-0.1,0-0.3,0-0.4,0h-3.6c-3,0-5.5,2.5-5.5,5.5v4.4l0,0.1
		l0.3,0.1c2.3,0.7,4.4,1.1,6.2,1.2v-1.3C706.5,164.8,708.4,162.3,711.1,161.5"/>
	<path fill="#FFFFFF" d="M339.4,91.2h-13.8c-1.3,0-2.4,1.1-2.4,2.4v28.1c0,1.3,1.1,2.4,2.4,2.4h13.8c1.3,0,2.4-1.1,2.4-2.4V93.6
		C341.8,92.3,340.8,91.2,339.4,91.2 M337.9,92.7c0.3,0,0.6,0.3,0.6,0.6c0,0.3-0.3,0.6-0.6,0.6c-0.3,0-0.6-0.3-0.6-0.6
		C337.2,93,337.5,92.7,337.9,92.7 M329.3,92.9h6.4v0.7h-6.4V92.9z M332.5,122.6c-0.9,0-1.6-0.7-1.6-1.6c0-0.9,0.7-1.6,1.6-1.6
		c0.9,0,1.6,0.7,1.6,1.6C334.1,121.9,333.4,122.6,332.5,122.6 M340,117.8h-15V95.2h15V117.8z"/>
	<path fill="none" stroke="#F5FEFF" stroke-width="3" stroke-miterlimit="10" d="M520,130v-26.5c0-5.5-4-10-9.5-10h-70"/>
	<path fill="none" stroke="#EDF6F9" stroke-width="3" stroke-miterlimit="10" d="M439.5,228.5h71c5.5,0,9.5-4.5,9.5-10V197"/>
	<path fill="none" stroke="#F5FEFF" stroke-width="3" stroke-miterlimit="10" d="M584.5,331.5h54c5.5,0,9.5-4.5,9.5-10V256"/>
	<path fill="none" stroke="#F5FEFF" stroke-width="3" stroke-miterlimit="10" d="M395,276v45.5c0,5.5,5,10,10.5,10h115"/>
	<path fill="none" stroke="#EDF6F9" stroke-width="3" stroke-miterlimit="10" d="M294.5,334.5H311c5.5,0,9-5,9-10.5v-77.5
		c0-5.5,5-10,10.5-10h17"/>
	<path fill="none" stroke="#EDF6F9" stroke-width="3" stroke-miterlimit="10" d="M231,177v33.5c0,5.5,5,10,10.5,10h106"/>
	<g>
		<g>
			<path fill="none" stroke="#FFFFFF" stroke-miterlimit="10" d="M109,213v-58c0-5.5,5-9.5,10.5-9.5h83"/>
			<g>
				<polygon fill="#FFFFFF" points="113,212 109.5,218.1 106,212 				"/>
			</g>
		</g>
	</g>
	<path fill="none" stroke="#FFFFFF" stroke-miterlimit="10" d="M332,126v10.5c0,5.5-3.5,10-9,10h-61.5"/>
	<path fill="none" stroke="#FFFFFF" stroke-miterlimit="10" d="M627,145v10.5c0,5.5-3.5,10-9,10h-61.5"/>
	<g>
		<g>
			<path fill="none" stroke="#FFFFFF" stroke-miterlimit="10" d="M714,184v33.5c0,5.5-3.5,10-9,10h-25.5"/>
			<g>
				<polygon fill="#FFFFFF" points="711,185 714.5,179 718,185 				"/>
			</g>
		</g>
	</g>
	<g>
		<g>
			<path fill="none" stroke="#FFFFFF" stroke-miterlimit="10" d="M287.5,72.5H323c5.5,0,9,4.5,9,10V89"/>
			<g>
				<circle fill="#FFFFFF" cx="287.3" cy="72.5" r="2.3"/>
			</g>
		</g>
	</g>
	<g>
		<g>
			<path fill="none" stroke="#FFFFFF" stroke-miterlimit="10" d="M88.5,103.5H159c5.5,0,9,4.5,9,10V145"/>
			<g>
				<circle fill="#FFFFFF" cx="88.9" cy="103.5" r="2.3"/>
			</g>
		</g>
	</g>
	<g>
		<g>
			<path fill="none" stroke="#FFFFFF" stroke-miterlimit="10" d="M479.5,271.5H546c5.5,0,9,4.5,9,10V301"/>
			<g>
				<circle fill="#FFFFFF" cx="479.9" cy="271.5" r="2.3"/>
			</g>
		</g>
	</g>
	<path fill="none" stroke="#FFFFFF" stroke-miterlimit="10" d="M163,308v15.5c0,5.5,6,11,11.5,11h56"/>
	<circle fill="#FFFFFF" cx="394.9" cy="229.4" r="40.2"/>
	<g>
		<g>
			<g>
				<g>
					<path fill="#4C9BB9" d="M386.8,232.5C386.8,232.5,386.8,232.5,386.8,232.5c-1.4-0.6-4.5-1.7-6.5-2.3c-0.2-0.1-0.2-0.1-0.2-0.8
						c0-0.6,0.2-1.2,0.5-1.7c0.3-0.5,0.6-1.4,0.7-2.2c0.3-0.3,0.7-1,1-2.3c0.2-1.2,0.1-1.6,0-2c0,0,0-0.1,0-0.1
						c-0.1-0.3,0-1.7,0.2-2.8c0.1-0.7,0-2.3-1.1-3.6c-0.6-0.8-1.9-1.8-4.2-2h-1.2c-2.2,0.1-3.5,1.2-4.1,2c-1,1.3-1.2,2.9-1.1,3.6
						c0.2,1.1,0.3,2.5,0.2,2.8c0,0,0,0.1,0,0.1c-0.2,0.4-0.3,0.8,0,2c0.3,1.3,0.7,2,1,2.3c0.1,0.8,0.4,1.7,0.7,2.2
						c0.2,0.4,0.3,0.9,0.3,1.7c0,0.7,0,0.7-0.2,0.8c-2,0.6-5.3,1.8-6.5,2.3c0,0,0,0,0,0v5.1h20.8V232.5z"/>
				</g>
			</g>
			<g>
				<g>
					<path fill="#4C9BB9" d="M426.3,232.5C426.3,232.5,426.3,232.5,426.3,232.5c-1.3-0.6-4.5-1.7-6.5-2.3c-0.2-0.1-0.2-0.1-0.2-0.8
						c0-0.6,0.2-1.2,0.5-1.7c0.3-0.5,0.6-1.4,0.7-2.2c0.3-0.3,0.7-1,1-2.3c0.2-1.2,0.1-1.6,0-2c0,0,0-0.1,0-0.1
						c-0.1-0.3,0-1.7,0.2-2.8c0.1-0.7,0-2.3-1.1-3.6c-0.6-0.8-1.9-1.8-4.2-2h-1.2c-2.2,0.1-3.5,1.2-4.1,2c-1,1.3-1.2,2.9-1.1,3.6
						c0.2,1.1,0.3,2.5,0.2,2.8c0,0,0,0.1,0,0.1c-0.2,0.4-0.3,0.8,0,2c0.3,1.3,0.7,2,1,2.3c0.1,0.8,0.4,1.7,0.7,2.2
						c0.2,0.4,0.3,0.9,0.3,1.7c0,0.7,0,0.7-0.2,0.8c-2,0.6-5.3,1.8-6.5,2.3c0,0,0,0,0,0v5.1h20.8V232.5z"/>
				</g>
			</g>
			<g>
				<g>
					<path fill="#4C9BB9" d="M410.6,239.6L410.6,239.6c-1.9-0.8-6.4-2.3-9.1-3.2c-0.2-0.1-0.3-0.1-0.3-1.1c0-0.8,0.3-1.6,0.7-2.3
						c0.4-0.8,0.8-2,0.9-3.2c0.4-0.5,1-1.5,1.4-3.3c0.3-1.6,0.2-2.2,0-2.8c0-0.1,0-0.1-0.1-0.2c-0.1-0.4,0-2.3,0.3-3.9
						c0.2-1,0-3.3-1.5-5.1c-0.9-1.2-2.7-2.6-5.8-2.8h-1.7c-3.1,0.2-4.9,1.6-5.8,2.8c-1.4,1.8-1.7,4.1-1.5,5.1
						c0.3,1.5,0.4,3.5,0.3,3.9c0,0.1,0,0.1-0.1,0.2c-0.2,0.6-0.4,1.1,0,2.8c0.4,1.8,0.9,2.8,1.4,3.3c0.1,1.1,0.6,2.4,0.9,3.2
						c0.3,0.5,0.4,1.3,0.4,2.4c0,1,0,1-0.3,1.1c-2.9,0.8-7.4,2.5-9.1,3.2c0,0,0,0,0,0v7.2h29.2V239.6z"/>
				</g>
			</g>
		</g>
	</g>
	<circle fill="#FFFFFF" cx="520.8" cy="163.5" r="31"/>
	<g>
		<g>
			<polygon fill="#4C9BB9" points="504.6,180.3 509.5,175.1 529.2,175.1 529.2,169.6 511.3,169.6 510.3,169.6 510.3,168.6 
				510.3,156.7 501.8,156.7 501.8,175.1 504.6,175.1 			"/>
			<path fill="#4C9BB9" d="M531.8,168.5l4.9,5.5v-5.5h3.1v-19h-28.4v7.2v11.9h17.8H531.8z M535.1,157c1.2,0,2.2,1,2.2,2.2
				c0,1.2-1,2.2-2.2,2.2c-1.2,0-2.2-1-2.2-2.2C532.9,158,533.9,157,535.1,157 M516.9,161.4c-1.2,0-2.2-1-2.2-2.2
				c0-1.2,1-2.2,2.2-2.2c1.2,0,2.2,1,2.2,2.2C519.1,160.4,518.1,161.4,516.9,161.4 M523,161.4c-1.2,0-2.2-1-2.2-2.2
				c0-1.2,1-2.2,2.2-2.2c1.2,0,2.2,1,2.2,2.2C525.1,160.4,524.2,161.4,523,161.4 M529,161.4c-1.2,0-2.2-1-2.2-2.2
				c0-1.2,1-2.2,2.2-2.2c0,0,0.1,0,0.1,0c1.1,0.1,2,1,2,2.2c0,1.2-0.9,2.1-2,2.2C529.1,161.4,529.1,161.4,529,161.4"/>
		</g>
	</g>
</g>
</svg>
